<?xml version="1.0" encoding="UTF-8"?> <svg xmlns="http://www.w3.org/2000/svg" xmlns:xlink="http://www.w3.org/1999/xlink" viewBox="0 0 334.72 352.86"><defs><style>.cls-1{fill:none;}.cls-2{isolation:isolate;}.cls-3{fill:#aca9a6;}.cls-12,.cls-13,.cls-4{fill:#cfcbc7;}.cls-5{fill:url(#Ѕезым_нный_градиент_11);}.cls-6{fill:#efeae5;}.cls-7{fill:#b6b2ae;}.cls-8{fill:#211c18;}.cls-9{fill:#28221d;}.cls-10{fill:#8a8682;}.cls-11{fill:#7b7774;}.cls-12{opacity:0.1;}.cls-13{opacity:0.6;}.cls-14{fill:url(#Ѕезым_нный_градиент_34);}.cls-15{fill:#aaa6a2;}.cls-16{fill:url(#Ѕезым_нный_градиент_34-2);}.cls-17{fill:url(#Ѕезым_нный_градиент_34-3);}.cls-18{fill:url(#Ѕезым_нный_градиент_34-4);}.cls-19{fill:url(#Ѕезым_нный_градиент_34-5);}.cls-20{fill:#726f6c;}.cls-21,.cls-62{fill:#4764eb;}.cls-22{fill:#ffbd39;}.cls-23{fill:#992929;}.cls-24{fill:#376d14;}.cls-25{fill:#443a31;}.cls-26{fill:#2c4c83;}.cls-27{fill:#345590;}.cls-28{clip-path:url(#clip-path);}.cls-29{fill:#5b7fbc;}.cls-30{fill:#e9e4df;}.cls-31{fill:#dd8f12;}.cls-32{fill:#e6a52a;}.cls-33{fill:#3f60a5;}.cls-34{fill:#332c25;}.cls-35{fill:url(#Ѕезым_нный_градиент_57);}.cls-36{fill:#90a030;}.cls-37{fill:url(#Ѕезым_нный_градиент_49);}.cls-38{fill:url(#Ѕезым_нный_градиент_57-2);}.cls-39{fill:url(#Ѕезым_нный_градиент_49-2);}.cls-40{fill:url(#Ѕезым_нный_градиент_57-3);}.cls-41{fill:url(#Ѕезым_нный_градиент_49-3);}.cls-42{fill:url(#Ѕезым_нный_градиент_57-4);}.cls-43{fill:url(#Ѕезым_нный_градиент_49-4);}.cls-44{fill:url(#Ѕезым_нный_градиент_57-5);}.cls-45{fill:url(#Ѕезым_нный_градиент_49-5);}.cls-46{fill:url(#Ѕезым_нный_градиент_57-6);}.cls-47{fill:url(#Ѕезым_нный_градиент_49-6);}.cls-48{fill:url(#Ѕезым_нный_градиент_57-7);}.cls-49{fill:url(#Ѕезым_нный_градиент_49-7);}.cls-50{fill:url(#Ѕезым_нный_градиент_57-8);}.cls-51{fill:url(#Ѕезым_нный_градиент_49-8);}.cls-52{fill:url(#Ѕезым_нный_градиент_57-9);}.cls-53{fill:url(#Ѕезым_нный_градиент_50);}.cls-54{fill:url(#Ѕезым_нный_градиент_57-10);}.cls-55{fill:url(#Ѕезым_нный_градиент_50-2);}.cls-56{fill:url(#Ѕезым_нный_градиент_57-11);}.cls-57{fill:url(#Ѕезым_нный_градиент_50-3);}.cls-58{fill:url(#Ѕезым_нный_градиент_57-12);}.cls-59{fill:#9e9a96;}.cls-60,.cls-62{mix-blend-mode:screen;}.cls-61{fill:#3f5dc9;}.cls-62{opacity:0.4;}</style><linearGradient id="Ѕезым_нный_градиент_11" x1="93.47" y1="67.64" x2="327.32" y2="67.64" gradientUnits="userSpaceOnUse"><stop offset="0" stop-color="#e1dcd8"></stop><stop offset="1" stop-color="#e9e4df"></stop></linearGradient><linearGradient id="Ѕезым_нный_градиент_34" x1="299.45" y1="233.33" x2="301.91" y2="237.59" gradientUnits="userSpaceOnUse"><stop offset="0" stop-color="#b6b2ae"></stop><stop offset="0.68" stop-color="#bbb7b3"></stop><stop offset="1" stop-color="#c0bcb8"></stop></linearGradient><linearGradient id="Ѕезым_нный_градиент_34-2" x1="299.45" y1="243.64" x2="301.91" y2="247.91" xlink:href="#Ѕезым_нный_градиент_34"></linearGradient><linearGradient id="Ѕезым_нный_градиент_34-3" x1="299.45" y1="253.96" x2="301.91" y2="258.22" xlink:href="#Ѕезым_нный_градиент_34"></linearGradient><linearGradient id="Ѕезым_нный_градиент_34-4" x1="299.45" y1="264.27" x2="301.91" y2="268.54" xlink:href="#Ѕезым_нный_градиент_34"></linearGradient><linearGradient id="Ѕезым_нный_градиент_34-5" x1="299.45" y1="274.59" x2="301.91" y2="278.85" xlink:href="#Ѕезым_нный_градиент_34"></linearGradient><clipPath id="clip-path"><polygon id="Cube_face_-_top" data-name="Cube face - top" class="cls-1" points="102.18 346.26 1.44 288.1 94.22 234.54 194.96 292.7 102.18 346.26"></polygon></clipPath><linearGradient id="Ѕезым_нный_градиент_57" x1="57.12" y1="247.8" x2="107.53" y2="247.8" gradientUnits="userSpaceOnUse"><stop offset="0" stop-color="#e1dcd8"></stop><stop offset="1" stop-color="#efeae5"></stop></linearGradient><linearGradient id="Ѕезым_нный_градиент_49" x1="77.9" y1="275.54" x2="81.66" y2="275.54" gradientUnits="userSpaceOnUse"><stop offset="0" stop-color="#b6b2ae"></stop><stop offset="1" stop-color="#cfcbc7"></stop></linearGradient><linearGradient id="Ѕезым_нный_градиент_57-2" x1="77.9" y1="272.67" x2="81.66" y2="272.67" xlink:href="#Ѕезым_нный_градиент_57"></linearGradient><linearGradient id="Ѕезым_нный_градиент_49-2" x1="83" y1="278.48" x2="86.75" y2="278.48" xlink:href="#Ѕезым_нный_градиент_49"></linearGradient><linearGradient id="Ѕезым_нный_градиент_57-3" x1="83" y1="275.61" x2="86.75" y2="275.61" xlink:href="#Ѕезым_нный_градиент_57"></linearGradient><linearGradient id="Ѕезым_нный_градиент_49-3" x1="88.09" y1="281.42" x2="91.85" y2="281.42" xlink:href="#Ѕезым_нный_градиент_49"></linearGradient><linearGradient id="Ѕезым_нный_градиент_57-4" x1="88.09" y1="278.56" x2="91.85" y2="278.56" xlink:href="#Ѕезым_нный_градиент_57"></linearGradient><linearGradient id="Ѕезым_нный_градиент_49-4" x1="65.5" y1="321.25" x2="69.26" y2="321.25" xlink:href="#Ѕезым_нный_градиент_49"></linearGradient><linearGradient id="Ѕезым_нный_градиент_57-5" x1="65.5" y1="318.38" x2="69.26" y2="318.38" xlink:href="#Ѕезым_нный_градиент_57"></linearGradient><linearGradient id="Ѕезым_нный_градиент_49-5" x1="70.6" y1="324.19" x2="74.36" y2="324.19" xlink:href="#Ѕезым_нный_градиент_49"></linearGradient><linearGradient id="Ѕезым_нный_градиент_57-6" x1="70.6" y1="321.32" x2="74.36" y2="321.32" xlink:href="#Ѕезым_нный_градиент_57"></linearGradient><linearGradient id="Ѕезым_нный_градиент_49-6" x1="134.26" y1="259.19" x2="139.87" y2="259.19" xlink:href="#Ѕезым_нный_градиент_49"></linearGradient><linearGradient id="Ѕезым_нный_градиент_57-7" x1="134.26" y1="254.91" x2="139.87" y2="254.91" xlink:href="#Ѕезым_нный_градиент_57"></linearGradient><linearGradient id="Ѕезым_нный_градиент_49-7" x1="141.87" y1="263.58" x2="147.47" y2="263.58" xlink:href="#Ѕезым_нный_градиент_49"></linearGradient><linearGradient id="Ѕезым_нный_градиент_57-8" x1="141.87" y1="259.3" x2="147.47" y2="259.3" xlink:href="#Ѕезым_нный_градиент_57"></linearGradient><linearGradient id="Ѕезым_нный_градиент_49-8" x1="149.47" y1="267.97" x2="155.07" y2="267.97" xlink:href="#Ѕезым_нный_градиент_49"></linearGradient><linearGradient id="Ѕезым_нный_градиент_57-9" x1="149.47" y1="263.69" x2="155.07" y2="263.69" xlink:href="#Ѕезым_нный_градиент_57"></linearGradient><linearGradient id="Ѕезым_нный_градиент_50" x1="75.36" y1="260.06" x2="79.12" y2="260.06" gradientTransform="matrix(-1, 0, 0, 1, 128.42, 0)" gradientUnits="userSpaceOnUse"><stop offset="0" stop-color="#cfcbc7"></stop><stop offset="1" stop-color="#b6b2ae"></stop></linearGradient><linearGradient id="Ѕезым_нный_градиент_57-10" x1="75.36" y1="257.19" x2="79.12" y2="257.19" gradientTransform="matrix(-1, 0, 0, 1, 128.42, 0)" xlink:href="#Ѕезым_нный_градиент_57"></linearGradient><linearGradient id="Ѕезым_нный_градиент_50-2" x1="101.82" y1="275.34" x2="105.58" y2="275.34" xlink:href="#Ѕезым_нный_градиент_50"></linearGradient><linearGradient id="Ѕезым_нный_градиент_57-11" x1="101.82" y1="272.47" x2="105.58" y2="272.47" gradientTransform="matrix(-1, 0, 0, 1, 128.42, 0)" xlink:href="#Ѕезым_нный_градиент_57"></linearGradient><linearGradient id="Ѕезым_нный_градиент_50-3" x1="106.92" y1="278.28" x2="110.67" y2="278.28" xlink:href="#Ѕезым_нный_градиент_50"></linearGradient><linearGradient id="Ѕезым_нный_градиент_57-12" x1="106.92" y1="275.41" x2="110.67" y2="275.41" gradientTransform="matrix(-1, 0, 0, 1, 128.42, 0)" xlink:href="#Ѕезым_нный_градиент_57"></linearGradient></defs><g class="cls-2"><g id="_0" data-name="0"><g id="_4" data-name="4"><path class="cls-3" d="M161.17,181.58h-34.8l-71.2,41.11,157.9,91.16a28.78,28.78,0,0,0,14.37,3.85h34.69a1.19,1.19,0,0,0,.95-1.91Z"></path><polygon class="cls-3" points="39.88 266.68 0 289.7 100.53 347.75 102.18 347.75 39.88 266.68"></polygon><g class="cls-2"><path class="cls-4" d="M334.68,108.18,266.11,148l0,164.47c0,2.33-.83,4-2.16,4.74l68.57-39.85c1.33-.77,2.15-2.41,2.16-4.73Z"></path><polygon class="cls-5" points="162.04 0 93.47 39.85 258.75 135.27 327.32 95.43 162.04 0"></polygon><path class="cls-6" d="M333.4,102.64a17.73,17.73,0,0,0-2.86-4.5,12.73,12.73,0,0,0-3.22-2.71l-68.57,39.84A13,13,0,0,1,262,138a17.55,17.55,0,0,1,2.86,4.5,13.81,13.81,0,0,1,1.28,5.53l68.57-39.84A13.82,13.82,0,0,0,333.4,102.64Z"></path><path class="cls-7" d="M266.11,148a16.25,16.25,0,0,0-7.36-12.75L93.47,39.85V221.29l165.28,95.43c4.07,2.35,7.39.46,7.41-4.23ZM130,78.55l.78-.45,2.07,1.19L130,80.94c-.66.38-1.19.15-1.19-.51A2.46,2.46,0,0,1,130,78.55Zm0,4.18,4.4-2.54,2.07,1.19L130,85.12c-.66.38-1.19.15-1.19-.51A2.46,2.46,0,0,1,130,82.73Zm0,4.18,8-4.63,2.07,1.19L130,89.3c-.66.38-1.19.15-1.19-.51A2.46,2.46,0,0,1,130,86.91Zm0,4.18,11.64-6.72,2.07,1.19L130,93.48c-.66.38-1.19.15-1.19-.51A2.46,2.46,0,0,1,130,91.09Zm0,4.18,15.26-8.81,2.07,1.19L130,97.66c-.66.38-1.19.15-1.19-.51A2.46,2.46,0,0,1,130,95.27Zm0,4.18,18.88-10.9,1.91,1.1a2.19,2.19,0,0,1-.43.43L130,101.84c-.66.38-1.19.15-1.19-.51A2.46,2.46,0,0,1,130,99.45Zm-4.45,94.22-20.35,11.75c-.66.38-1.2.16-1.2-.5a2.47,2.47,0,0,1,1.2-1.88l20.35-11.76c.66-.38,1.2-.15,1.2.51A2.47,2.47,0,0,1,125.53,193.67Zm0-4.18-20.35,11.75c-.66.38-1.2.16-1.2-.5a2.47,2.47,0,0,1,1.2-1.88l20.35-11.76c.66-.38,1.2-.15,1.2.51A2.47,2.47,0,0,1,125.53,189.49Zm0-4.18-20.35,11.75c-.66.38-1.2.16-1.2-.5a2.47,2.47,0,0,1,1.2-1.88l20.35-11.76c.66-.38,1.2-.15,1.2.51A2.47,2.47,0,0,1,125.53,185.31Zm0-4.18-20.35,11.75c-.66.39-1.2.16-1.2-.5a2.47,2.47,0,0,1,1.2-1.88l20.35-11.76c.66-.38,1.2-.15,1.2.51A2.47,2.47,0,0,1,125.53,181.13Zm0-4.18-20.35,11.76c-.66.38-1.2.15-1.2-.51a2.47,2.47,0,0,1,1.2-1.88l20.35-11.76c.66-.38,1.2-.15,1.2.51A2.47,2.47,0,0,1,125.53,177Zm0-4.18-20.35,11.76c-.66.38-1.2.15-1.2-.51a2.47,2.47,0,0,1,1.2-1.88l20.35-11.76c.66-.38,1.2-.15,1.2.51A2.47,2.47,0,0,1,125.53,172.77Zm0-4.18-20.35,11.76c-.66.38-1.2.15-1.2-.51a2.47,2.47,0,0,1,1.2-1.88l20.35-11.76c.66-.38,1.2-.15,1.2.51A2.47,2.47,0,0,1,125.53,168.59Zm0-4.18-20.35,11.76c-.66.38-1.2.15-1.2-.51a2.47,2.47,0,0,1,1.2-1.88L125.53,162c.66-.38,1.2-.15,1.2.51A2.47,2.47,0,0,1,125.53,164.41Zm0-4.18L105.18,172c-.66.38-1.2.15-1.2-.51a2.47,2.47,0,0,1,1.2-1.88l20.35-11.76c.66-.38,1.2-.15,1.2.51A2.47,2.47,0,0,1,125.53,160.23Zm0-4.18-20.35,11.76c-.66.38-1.2.15-1.2-.51a2.47,2.47,0,0,1,1.2-1.88l20.35-11.75c.66-.39,1.2-.16,1.2.5A2.47,2.47,0,0,1,125.53,156.05Zm0-39.11L105.18,128.7c-.66.38-1.2.15-1.2-.51a2.47,2.47,0,0,1,1.2-1.88l20.35-11.76c.66-.38,1.2-.15,1.2.51A2.47,2.47,0,0,1,125.53,116.94Zm0-4.18-20.35,11.76c-.66.38-1.2.15-1.2-.51a2.47,2.47,0,0,1,1.2-1.88l20.35-11.76c.66-.38,1.2-.15,1.2.51A2.47,2.47,0,0,1,125.53,112.76Zm0-4.18-20.35,11.76c-.66.38-1.2.15-1.2-.51a2.47,2.47,0,0,1,1.2-1.88l20.35-11.76c.66-.38,1.2-.15,1.2.51A2.47,2.47,0,0,1,125.53,108.58Zm0-4.18-20.35,11.76c-.66.38-1.2.15-1.2-.51a2.47,2.47,0,0,1,1.2-1.88L125.53,102c.66-.39,1.2-.16,1.2.5A2.47,2.47,0,0,1,125.53,104.4Zm0-4.18L105.18,112c-.66.38-1.2.15-1.2-.51a2.47,2.47,0,0,1,1.2-1.88l20.35-11.75c.66-.39,1.2-.16,1.2.5A2.47,2.47,0,0,1,125.53,100.22Zm0-4.18L105.18,107.8c-.66.38-1.2.15-1.2-.51a2.47,2.47,0,0,1,1.2-1.88l20.35-11.75c.66-.38,1.2-.16,1.2.5A2.47,2.47,0,0,1,125.53,96Zm0-4.18-20.35,11.76c-.66.38-1.2.15-1.2-.51a2.47,2.47,0,0,1,1.2-1.88l20.35-11.75c.66-.38,1.2-.16,1.2.5A2.47,2.47,0,0,1,125.53,91.86Zm0-4.18L105.18,99.44c-.66.38-1.2.15-1.2-.51a2.47,2.47,0,0,1,1.2-1.88L125.53,85.3c.66-.38,1.2-.16,1.2.5A2.47,2.47,0,0,1,125.53,87.68Zm0-4.18L105.18,95.26c-.66.38-1.2.15-1.2-.51a2.47,2.47,0,0,1,1.2-1.88l20.35-11.75c.66-.38,1.2-.16,1.2.5A2.47,2.47,0,0,1,125.53,83.5Zm0-4.18L105.18,91.08c-.66.38-1.2.15-1.2-.51a2.47,2.47,0,0,1,1.2-1.88l20.35-11.75c.66-.38,1.2-.16,1.2.5A2.47,2.47,0,0,1,125.53,79.32Zm24.81,100L130,191.1c-.66.38-1.19.16-1.19-.5a2.46,2.46,0,0,1,1.19-1.88L150.34,177c.66-.38,1.19-.15,1.19.51A2.46,2.46,0,0,1,150.34,179.35Zm0-4.18L130,186.92c-.66.38-1.19.16-1.19-.5a2.46,2.46,0,0,1,1.19-1.88l20.36-11.76c.66-.38,1.19-.15,1.19.51A2.46,2.46,0,0,1,150.34,175.17Zm0-4.18L130,182.74c-.66.38-1.19.16-1.19-.5a2.46,2.46,0,0,1,1.19-1.88l20.36-11.76c.66-.38,1.19-.15,1.19.51A2.46,2.46,0,0,1,150.34,171Zm0-4.18L130,178.56c-.66.38-1.19.16-1.19-.5a2.46,2.46,0,0,1,1.19-1.88l20.36-11.76c.66-.38,1.19-.15,1.19.51A2.46,2.46,0,0,1,150.34,166.81Zm0-4.18L130,174.38c-.66.38-1.19.16-1.19-.5A2.46,2.46,0,0,1,130,172l20.36-11.76c.66-.38,1.19-.15,1.19.51A2.46,2.46,0,0,1,150.34,162.63Zm0-4.18L130,170.2c-.66.39-1.19.16-1.19-.5a2.46,2.46,0,0,1,1.19-1.88l20.36-11.76c.66-.38,1.19-.15,1.19.51A2.46,2.46,0,0,1,150.34,158.45Zm0-4.18L130,166c-.66.38-1.19.15-1.19-.51a2.46,2.46,0,0,1,1.19-1.88l20.36-11.76c.66-.38,1.19-.15,1.19.51A2.46,2.46,0,0,1,150.34,154.27Zm0-4.18L130,161.85c-.66.38-1.19.15-1.19-.51a2.46,2.46,0,0,1,1.19-1.88l20.36-11.76c.66-.38,1.19-.15,1.19.51A2.46,2.46,0,0,1,150.34,150.09Zm0-4.18L130,157.67c-.66.38-1.19.15-1.19-.51a2.46,2.46,0,0,1,1.19-1.88l20.36-11.76c.66-.38,1.19-.15,1.19.51A2.46,2.46,0,0,1,150.34,145.91Zm0-4.18L130,153.49c-.66.38-1.19.15-1.19-.51A2.46,2.46,0,0,1,130,151.1l20.36-11.76c.66-.38,1.19-.15,1.19.51A2.46,2.46,0,0,1,150.34,141.73Zm0-39.11L130,114.37c-.66.39-1.19.16-1.19-.5A2.46,2.46,0,0,1,130,112l20.36-11.76c.66-.38,1.19-.15,1.19.51A2.46,2.46,0,0,1,150.34,102.62Zm0-4.18L130,110.2c-.66.38-1.19.15-1.19-.51a2.46,2.46,0,0,1,1.19-1.88l20.36-11.76c.66-.38,1.19-.15,1.19.51A2.46,2.46,0,0,1,150.34,98.44Zm0-4.18L130,106c-.66.38-1.19.15-1.19-.51a2.46,2.46,0,0,1,1.19-1.88l20.36-11.76c.66-.38,1.19-.15,1.19.51A2.46,2.46,0,0,1,150.34,94.26Z"></path><polygon class="cls-8" points="266.11 148.02 255.93 166.09 255.93 240.72 266.15 246.62 279.49 198.6 266.11 148.02"></polygon><polygon class="cls-9" points="334.7 207.03 334.68 108.17 266.11 148.02 266.13 246.62 334.7 207.03"></polygon></g><polygon class="cls-10" points="168.02 99.61 161.17 176.35 95.74 220.04 233.38 299.51 233.38 137.35 168.02 99.61"></polygon><path class="cls-11" d="M165,97.87l-14.24-8.22a2.19,2.19,0,0,1-.43.43L130,101.84c-.66.38-1.19.15-1.19-.51A2.46,2.46,0,0,1,130,99.45l18.88-10.9,1,.59-2.57-1.49L130,97.66c-.66.38-1.19.15-1.19-.51A2.46,2.46,0,0,1,130,95.27l15.26-8.81-1.55-.9L130,93.48c-.66.38-1.19.15-1.19-.51A2.46,2.46,0,0,1,130,91.09l11.64-6.72-1.55-.9L130,89.3c-.66.38-1.19.15-1.19-.51A2.46,2.46,0,0,1,130,86.91l8-4.63-1.79-1,.24.13L130,85.12c-.66.38-1.19.15-1.19-.51A2.46,2.46,0,0,1,130,82.73l4.4-2.54-1.55-.9L130,80.94c-.66.38-1.19.15-1.19-.51A2.46,2.46,0,0,1,130,78.55l.78-.45-35-20.22V220l70.12-40.49Zm-39.48,95.8-20.35,11.75c-.66.38-1.2.16-1.2-.5a2.47,2.47,0,0,1,1.2-1.88l20.35-11.76c.66-.38,1.2-.15,1.2.51A2.47,2.47,0,0,1,125.53,193.67Zm0-4.18-20.35,11.75c-.66.38-1.2.16-1.2-.5a2.47,2.47,0,0,1,1.2-1.88l20.35-11.76c.66-.38,1.2-.15,1.2.51A2.47,2.47,0,0,1,125.53,189.49Zm0-4.18-20.35,11.75c-.66.38-1.2.16-1.2-.5a2.47,2.47,0,0,1,1.2-1.88l20.35-11.76c.66-.38,1.2-.15,1.2.51A2.47,2.47,0,0,1,125.53,185.31Zm0-4.18-20.35,11.75c-.66.39-1.2.16-1.2-.5a2.47,2.47,0,0,1,1.2-1.88l20.35-11.76c.66-.38,1.2-.15,1.2.51A2.47,2.47,0,0,1,125.53,181.13Zm0-4.18-20.35,11.76c-.66.38-1.2.15-1.2-.51a2.47,2.47,0,0,1,1.2-1.88l20.35-11.76c.66-.38,1.2-.15,1.2.51A2.47,2.47,0,0,1,125.53,177Zm0-4.18-20.35,11.76c-.66.38-1.2.15-1.2-.51a2.47,2.47,0,0,1,1.2-1.88l20.35-11.76c.66-.38,1.2-.15,1.2.51A2.47,2.47,0,0,1,125.53,172.77Zm0-4.18-20.35,11.76c-.66.38-1.2.15-1.2-.51a2.47,2.47,0,0,1,1.2-1.88l20.35-11.76c.66-.38,1.2-.15,1.2.51A2.47,2.47,0,0,1,125.53,168.59Zm0-4.18-20.35,11.76c-.66.38-1.2.15-1.2-.51a2.47,2.47,0,0,1,1.2-1.88L125.53,162c.66-.38,1.2-.15,1.2.51A2.47,2.47,0,0,1,125.53,164.41Zm0-4.18L105.18,172c-.66.38-1.2.15-1.2-.51a2.47,2.47,0,0,1,1.2-1.88l20.35-11.76c.66-.38,1.2-.15,1.2.51A2.47,2.47,0,0,1,125.53,160.23Zm0-4.18-20.35,11.76c-.66.38-1.2.15-1.2-.51a2.47,2.47,0,0,1,1.2-1.88l20.35-11.75c.66-.39,1.2-.16,1.2.5A2.47,2.47,0,0,1,125.53,156.05Zm0-39.11L105.18,128.7c-.66.38-1.2.15-1.2-.51a2.47,2.47,0,0,1,1.2-1.88l20.35-11.76c.66-.38,1.2-.15,1.2.51A2.47,2.47,0,0,1,125.53,116.94Zm0-4.18-20.35,11.76c-.66.38-1.2.15-1.2-.51a2.47,2.47,0,0,1,1.2-1.88l20.35-11.76c.66-.38,1.2-.15,1.2.51A2.47,2.47,0,0,1,125.53,112.76Zm0-4.18-20.35,11.76c-.66.38-1.2.15-1.2-.51a2.47,2.47,0,0,1,1.2-1.88l20.35-11.76c.66-.38,1.2-.15,1.2.51A2.47,2.47,0,0,1,125.53,108.58Zm0-4.18-20.35,11.76c-.66.38-1.2.15-1.2-.51a2.47,2.47,0,0,1,1.2-1.88L125.53,102c.66-.39,1.2-.16,1.2.5A2.47,2.47,0,0,1,125.53,104.4Zm0-4.18L105.18,112c-.66.38-1.2.15-1.2-.51a2.47,2.47,0,0,1,1.2-1.88l20.35-11.75c.66-.39,1.2-.16,1.2.5A2.47,2.47,0,0,1,125.53,100.22Zm0-4.18L105.18,107.8c-.66.38-1.2.15-1.2-.51a2.47,2.47,0,0,1,1.2-1.88l20.35-11.75c.66-.38,1.2-.16,1.2.5A2.47,2.47,0,0,1,125.53,96Zm0-4.18-20.35,11.76c-.66.38-1.2.15-1.2-.51a2.47,2.47,0,0,1,1.2-1.88l20.35-11.75c.66-.38,1.2-.16,1.2.5A2.47,2.47,0,0,1,125.53,91.86Zm0-4.18L105.18,99.44c-.66.38-1.2.15-1.2-.51a2.47,2.47,0,0,1,1.2-1.88L125.53,85.3c.66-.38,1.2-.16,1.2.5A2.47,2.47,0,0,1,125.53,87.68Zm0-4.18L105.18,95.26c-.66.38-1.2.15-1.2-.51a2.47,2.47,0,0,1,1.2-1.88l20.35-11.75c.66-.38,1.2-.16,1.2.5A2.47,2.47,0,0,1,125.53,83.5Zm0-4.18L105.18,91.08c-.66.38-1.2.15-1.2-.51a2.47,2.47,0,0,1,1.2-1.88l20.35-11.75c.66-.38,1.2-.16,1.2.5A2.47,2.47,0,0,1,125.53,79.32Zm24.81,100L130,191.1c-.66.38-1.19.16-1.19-.5a2.46,2.46,0,0,1,1.19-1.88L150.34,177c.66-.38,1.19-.15,1.19.51A2.46,2.46,0,0,1,150.34,179.35Zm0-4.18L130,186.92c-.66.38-1.19.16-1.19-.5a2.46,2.46,0,0,1,1.19-1.88l20.36-11.76c.66-.38,1.19-.15,1.19.51A2.46,2.46,0,0,1,150.34,175.17Zm0-4.18L130,182.74c-.66.38-1.19.16-1.19-.5a2.46,2.46,0,0,1,1.19-1.88l20.36-11.76c.66-.38,1.19-.15,1.19.51A2.46,2.46,0,0,1,150.34,171Zm0-4.18L130,178.56c-.66.38-1.19.16-1.19-.5a2.46,2.46,0,0,1,1.19-1.88l20.36-11.76c.66-.38,1.19-.15,1.19.51A2.46,2.46,0,0,1,150.34,166.81Zm0-4.18L130,174.38c-.66.38-1.19.16-1.19-.5A2.46,2.46,0,0,1,130,172l20.36-11.76c.66-.38,1.19-.15,1.19.51A2.46,2.46,0,0,1,150.34,162.63Zm0-4.18L130,170.2c-.66.39-1.19.16-1.19-.5a2.46,2.46,0,0,1,1.19-1.88l20.36-11.76c.66-.38,1.19-.15,1.19.51A2.46,2.46,0,0,1,150.34,158.45Zm0-4.18L130,166c-.66.38-1.19.15-1.19-.51a2.46,2.46,0,0,1,1.19-1.88l20.36-11.76c.66-.38,1.19-.15,1.19.51A2.46,2.46,0,0,1,150.34,154.27Zm0-4.18L130,161.85c-.66.38-1.19.15-1.19-.51a2.46,2.46,0,0,1,1.19-1.88l20.36-11.76c.66-.38,1.19-.15,1.19.51A2.46,2.46,0,0,1,150.34,150.09Zm0-4.18L130,157.67c-.66.38-1.19.15-1.19-.51a2.46,2.46,0,0,1,1.19-1.88l20.36-11.76c.66-.38,1.19-.15,1.19.51A2.46,2.46,0,0,1,150.34,145.91Zm0-4.18L130,153.49c-.66.38-1.19.15-1.19-.51A2.46,2.46,0,0,1,130,151.1l20.36-11.76c.66-.38,1.19-.15,1.19.51A2.46,2.46,0,0,1,150.34,141.73Zm0-39.11L130,114.37c-.66.39-1.19.16-1.19-.5A2.46,2.46,0,0,1,130,112l20.36-11.76c.66-.38,1.19-.15,1.19.51A2.46,2.46,0,0,1,150.34,102.62Zm0-4.18L130,110.2c-.66.38-1.19.15-1.19-.51a2.46,2.46,0,0,1,1.19-1.88l20.36-11.76c.66-.38,1.19-.15,1.19.51A2.46,2.46,0,0,1,150.34,98.44Zm0-4.18L130,106c-.66.38-1.19.15-1.19-.51a2.46,2.46,0,0,1,1.19-1.88l20.36-11.76c.66-.38,1.19-.15,1.19.51A2.46,2.46,0,0,1,150.34,94.26Z"></path><path class="cls-12" d="M280,88.11,246.45,107.5c-5.39,3.11-14.12,3.11-19.51,0L132.4,52.91c-5.39-3.11-5.39-8.15,0-11.26L166,22.26c5.38-3.11,14.11-3.11,19.5,0L280,76.85C285.41,80,285.41,85,280,88.11Z"></path><path class="cls-13" d="M280,76.85,185.48,22.26c-5.39-3.11-14.12-3.11-19.5,0L132.4,41.65c-4.91,2.83-5.29,7.25-1.26,10.37.13-1.83,1.36-3.65,3.79-5.05l31.9-18.42c5.11-2.95,13.41-2.95,18.52,0l89.82,51.86c4.54,2.62,5,6.68,1.52,9.63L280,88.11C285.41,85,285.41,80,280,76.85Z"></path><polygon class="cls-14" points="330.86 220.87 270.5 255.73 270.5 250.04 330.86 215.19 330.86 220.87"></polygon><polygon class="cls-15" points="327.26 217.27 330.86 220.87 330.86 215.19 327.26 217.27"></polygon><polygon class="cls-16" points="330.86 231.19 270.5 266.04 270.5 260.36 330.86 225.5 330.86 231.19"></polygon><polygon class="cls-15" points="327.26 227.59 330.86 231.19 330.86 225.5 327.26 227.59"></polygon><polygon class="cls-17" points="330.86 241.5 270.5 276.36 270.5 270.68 330.86 235.82 330.86 241.5"></polygon><polygon class="cls-15" points="327.26 237.9 330.86 241.5 330.86 235.82 327.26 237.9"></polygon><polygon class="cls-18" points="330.86 251.82 270.5 286.68 270.5 280.99 330.86 246.14 330.86 251.82"></polygon><polygon class="cls-15" points="327.26 248.22 330.86 251.82 330.86 246.14 327.26 248.22"></polygon><polygon class="cls-19" points="330.86 262.14 270.5 296.99 270.5 291.31 330.86 256.45 330.86 262.14"></polygon><polygon class="cls-15" points="327.26 258.53 330.86 262.14 330.86 256.45 327.26 258.53"></polygon><polygon class="cls-20" points="161.17 182.26 233.38 223.95 233.38 137.35 161.17 95.66 161.17 182.26"></polygon><path class="cls-21" d="M296.44,150.63c1.77,2,5.68.83,8.75-2.71s4.11-8.06,2.34-10.1-5.68-.83-8.75,2.7S294.67,148.58,296.44,150.63Z"></path><path class="cls-9" d="M297.82,149c1.33,1.54,4.27.63,6.57-2s3.08-6,1.75-7.57-4.26-.63-6.56,2S296.5,147.49,297.82,149Z"></path><path class="cls-21" d="M299,164.4c.95,1.09,3.05.44,4.69-1.45s2.2-4.32,1.26-5.42-3-.44-4.69,1.45S298.07,163.3,299,164.4Z"></path><path class="cls-22" d="M131.08,272.69l-.29-.72c15.19-6.19,30.16-20.72,36.4-35.33,2.33-5.46,4.57-11.1,6.94-17.08,8.86-22.32,18.91-47.62,36-66.75,2.19-2.46,4.58-5,6.63-7.11l.56.53c-2.05,2.13-4.43,4.64-6.62,7.09-17,19-27,44.27-35.83,66.53-2.37,6-4.61,11.63-6.95,17.09C161.59,251.73,146.45,266.43,131.08,272.69Z"></path><path class="cls-23" d="M147.34,269.59l-.43-.64c18.65-12.8,25.54-30.55,33.52-51.09,8-20.73,17.18-44.22,40.45-68.73l.56.54c-23.17,24.39-32.27,47.81-40.29,68.47S166.19,256.65,147.34,269.59Z"></path><path class="cls-24" d="M133.91,288.4l-.29-.72c8.06-3.21,36.19-18.81,59.74-84.91C204,173,206.85,168.15,224,151.42l.53.56c-17.06,16.61-19.91,21.38-30.48,51.05C170.43,269.43,142,285.16,133.91,288.4Z"></path><path class="cls-22" d="M129.36,271l-.29-.72c15.19-6.18,30.16-20.71,36.4-35.33,2.34-5.46,4.58-11.11,6.95-17.1,8.86-22.32,18.9-47.61,36-66.73,2.14-2.41,4.44-4.83,6.21-6.68l.56.54c-1.76,1.84-4.06,4.26-6.2,6.65-17,19-27,44.25-35.81,66.51-2.38,6-4.63,11.64-7,17.11C159.87,250,144.73,264.74,129.36,271Z"></path><path class="cls-25" d="M145.44,267.13l-.44-.64c18.66-12.81,25.55-30.55,33.53-51.09s17.12-44.08,40.23-68.49l.56.53c-23,24.3-32.07,47.65-40.07,68.24S164.29,254.18,145.44,267.13Z"></path><path class="cls-25" d="M132,285.93l-.29-.71c8.06-3.21,36.19-18.82,59.74-84.91,10.6-29.76,13.41-34.5,30.08-50.78l.54.56c-16.56,16.16-19.35,20.88-29.89,50.48C168.53,267,140.15,282.7,132,285.93Z"></path><g id="Axonometric_Cube" data-name="Axonometric Cube"><polygon id="Cube_face_-_left" data-name="Cube face - left" class="cls-26" points="102.18 347.75 1.44 289.59 1.44 288.1 102.18 292.7 102.18 347.75"></polygon><polygon id="Cube_face_-_right" data-name="Cube face - right" class="cls-27" points="194.96 294.18 102.18 347.75 102.18 292.7 194.96 292.7 194.96 294.18"></polygon><polygon id="Cube_face_-_top-2" data-name="Cube face - top" class="cls-21" points="102.18 346.26 1.44 288.1 94.22 234.54 194.96 292.7 102.18 346.26"></polygon></g><g class="cls-28"><path class="cls-26" d="M33.79,352.86l-.11-.2L88,321.32c.05,0,54.27,31.34,54.27,31.34l-.11.19L88,321.58Z"></path><rect class="cls-26" x="42.61" y="260.6" width="0.23" height="86.97" transform="translate(-241.98 189.04) rotate(-60)"></rect><rect class="cls-26" x="65.05" y="291.1" width="121.88" height="0.23" transform="translate(-128.66 101.92) rotate(-29.98)"></rect><rect class="cls-26" x="165.22" y="268.5" width="0.23" height="35.48" transform="translate(-165.22 286.31) rotate(-60)"></rect><path class="cls-26" d="M93.49,290.47,42.6,261.1l.12-.2,50.77,29.31,74.54-43,.11.19Z"></path><rect class="cls-26" x="34.65" y="290.18" width="43.01" height="0.23" transform="translate(-137.72 67.05) rotate(-30.02)"></rect><rect class="cls-26" x="9.63" y="327.51" width="54.07" height="0.23" transform="translate(-158.78 62.14) rotate(-29.98)"></rect><rect class="cls-26" x="84.75" y="339.14" width="24.91" height="0.23" transform="translate(-156.7 94.16) rotate(-30.02)"></rect><path class="cls-29" d="M21.86,344.66c-.16-.14-.14-.23-.07-.27l96.09-55.47-19.8-11.43a.14.14,0,1,1,.15-.24l20,11.55c0,.24-96.3,55.84-96.3,55.84Z"></path><path class="cls-29" d="M131.19,294.86c-.08,0-30-17.3-30-17.3a.15.15,0,0,1-.05-.19.15.15,0,0,1,.2-.05l29.93,17.28a.15.15,0,0,1,.05.19A.14.14,0,0,1,131.19,294.86Z"></path><path class="cls-29" d="M132.67,294c-.07,0-61.58-35.53-61.58-35.53a.14.14,0,1,1,.14-.24l61.52,35.51a.16.16,0,0,1,.05.19A.15.15,0,0,1,132.67,294Z"></path><path class="cls-29" d="M134.16,293.15c-.07,0-61.59-35.54-61.59-35.54a.14.14,0,0,1,0-.19.13.13,0,0,1,.19-.05l61.51,35.52a.14.14,0,0,1,.05.19A.15.15,0,0,1,134.16,293.15Z"></path><path class="cls-29" d="M135.64,292.29c-.07,0-61.58-35.54-61.58-35.54a.13.13,0,0,1,0-.19.14.14,0,0,1,.19-.05L135.72,292a.14.14,0,0,1,0,.19A.14.14,0,0,1,135.64,292.29Z"></path><path class="cls-29" d="M137.13,291.43c-.07,0-61.59-35.53-61.59-35.53a.17.17,0,0,1-.05-.2.16.16,0,0,1,.2,0l61.51,35.52a.14.14,0,0,1,.05.19A.13.13,0,0,1,137.13,291.43Z"></path><path class="cls-29" d="M158.43,302c-.07,0-81.4-47-81.4-47a.14.14,0,0,1,0-.19.13.13,0,0,1,.19,0l81.33,46.95a.14.14,0,0,1,.05.19A.13.13,0,0,1,158.43,302Z"></path><path class="cls-29" d="M159.91,301.15c-.07,0-49.81-28.73-49.81-28.73a.15.15,0,0,1,0-.2.14.14,0,0,1,.19-.05L160,300.89a.14.14,0,0,1,.05.19A.12.12,0,0,1,159.91,301.15Z"></path><path class="cls-29" d="M161.4,300.3c-.08,0-49.82-28.74-49.82-28.74a.16.16,0,0,1,0-.19.14.14,0,0,1,.2-.05L161.47,300a.16.16,0,0,1,.05.2A.15.15,0,0,1,161.4,300.3Z"></path><path class="cls-29" d="M143.07,288c-.07,0-30-17.3-30-17.3a.14.14,0,0,1,.14-.24l29.93,17.28a.13.13,0,0,1,.05.19A.14.14,0,0,1,143.07,288Z"></path><path class="cls-29" d="M144.56,287.14c-.07,0-30-17.3-30-17.3a.14.14,0,0,1,.14-.24l29.93,17.28a.13.13,0,0,1,.05.19A.13.13,0,0,1,144.56,287.14Z"></path><path class="cls-29" d="M146,286.28c-.07,0-30-17.3-30-17.3a.14.14,0,0,1-.05-.19.14.14,0,0,1,.19-.05L146.12,286a.14.14,0,0,1,0,.19A.12.12,0,0,1,146,286.28Z"></path><path class="cls-29" d="M80.46,310.76c-.07,0-36.54-21.07-36.54-21.07a.14.14,0,0,1-.05-.19.13.13,0,0,1,.19-.05L80.53,310.5a.15.15,0,0,1,0,.19A.13.13,0,0,1,80.46,310.76Z"></path><path class="cls-29" d="M81.94,309.91c-.07,0-36.53-21.08-36.53-21.08a.13.13,0,0,1,0-.19.13.13,0,0,1,.19-.05L82,309.65a.14.14,0,0,1-.08.26Z"></path><path class="cls-29" d="M83.43,309.05C83.36,309,46.89,288,46.89,288a.13.13,0,0,1,0-.19.13.13,0,0,1,.19,0L83.5,308.79a.13.13,0,0,1,0,.19A.14.14,0,0,1,83.43,309.05Z"></path><path class="cls-29" d="M84.92,308.19c-.08,0-36.55-21.08-36.55-21.08a.14.14,0,0,1,0-.19.14.14,0,0,1,.19-.05L85,307.93a.15.15,0,0,1,.05.19A.13.13,0,0,1,84.92,308.19Z"></path><path class="cls-29" d="M86.4,307.33c-.07,0-36.54-21.07-36.54-21.07a.16.16,0,0,1,0-.19A.14.14,0,0,1,50,286l36.46,21.05a.14.14,0,0,1,0,.19A.12.12,0,0,1,86.4,307.33Z"></path><path class="cls-29" d="M114.39,270.46c-.16-.13-.14-.22-.08-.26l29.94-17.28a.14.14,0,0,1,.19.05.14.14,0,0,1-.05.19l-29.93,17.28A.1.1,0,0,1,114.39,270.46Z"></path><path class="cls-29" d="M112.9,269.6c-.16-.13-.13-.22-.07-.26l29.93-17.28a.14.14,0,0,1,.14.25L113,269.59Z"></path><path class="cls-29" d="M111.42,268.75c-.16-.14-.14-.23-.07-.26l29.93-17.28a.13.13,0,0,1,.19,0,.15.15,0,0,1-.05.19l-29.93,17.28Z"></path><path class="cls-29" d="M109.93,267.89c-.16-.14-.14-.22-.07-.26l29.93-17.28a.13.13,0,0,1,.19.05.13.13,0,0,1,0,.19L110,267.87Z"></path><path class="cls-29" d="M108.44,267c-.15-.13-.13-.22-.07-.26l29.93-17.28a.14.14,0,0,1,.2,0,.15.15,0,0,1-.05.19L108.52,267A.12.12,0,0,1,108.44,267Z"></path><path class="cls-29" d="M106.59,266.39c-.16-.14-.14-.22-.08-.26l30.31-17.5a.14.14,0,0,1,.19.05.13.13,0,0,1,0,.19l-30.3,17.5Z"></path><path class="cls-29" d="M105.1,265.53c-.16-.13-.14-.22-.07-.26l30.3-17.49a.13.13,0,0,1,.19.05.14.14,0,0,1-.05.19l-30.3,17.49A.1.1,0,0,1,105.1,265.53Z"></path><path class="cls-29" d="M72.84,347.23c-.16-.14-.13-.23-.07-.26l57.13-33a.14.14,0,0,1,.19,0,.14.14,0,0,1,0,.19l-57.14,33Z"></path><path class="cls-29" d="M71.36,346.37c-.16-.14-.14-.22-.07-.26l57.13-33a.14.14,0,0,1,.19.06.15.15,0,0,1-.05.19l-57.13,33Z"></path><path class="cls-29" d="M69.87,345.51c-.16-.13-.14-.22-.07-.26l57.13-33a.13.13,0,0,1,.19.05.14.14,0,0,1,0,.19l-57.14,33A.1.1,0,0,1,69.87,345.51Z"></path><path class="cls-29" d="M68.38,344.66c-.15-.14-.13-.23-.07-.27l57.14-33a.14.14,0,1,1,.14.24l-57.13,33Z"></path><path class="cls-29" d="M66.9,343.8c-.16-.14-.14-.23-.07-.26l57.13-33a.16.16,0,0,1,.2.05.15.15,0,0,1,0,.19L67,343.78Z"></path><path class="cls-29" d="M65,343.16c-.16-.14-.13-.23-.07-.27l57.5-33.2a.15.15,0,0,1,.2.05.17.17,0,0,1,0,.2l-57.51,33.2Z"></path><path class="cls-29" d="M63.55,342.3c-.16-.14-.13-.22-.07-.26L121,308.84c.14,0,22.73,13,22.73,13a.13.13,0,0,1,.05.19.13.13,0,0,1-.19.05l-22.52-13L63.63,342.28Z"></path><path class="cls-29" d="M138.65,319.2c-.15-.14-.13-.23-.07-.26l24.77-14.3a.14.14,0,0,1,.2.05.16.16,0,0,1-.05.19l-24.77,14.3Z"></path><polygon class="cls-30" points="76.81 321.58 77.81 322.15 84.72 318.16 83.72 317.58 76.81 321.58"></polygon><polygon class="cls-30" points="84.73 317 85.73 317.58 87.53 316.54 86.53 315.96 84.73 317"></polygon><path class="cls-29" d="M42.25,316.1c-.16-.13-.14-.22-.07-.26l14.11-8.15V296.8a.14.14,0,1,1,.28,0v11c-.07.12-14.25,8.3-14.25,8.3A.11.11,0,0,1,42.25,316.1Z"></path><path class="cls-29" d="M43.61,317.06c-.16-.13-.14-.22-.07-.26L58,308.48V297.71a.14.14,0,0,1,.28,0v10.85c-.07.12-14.56,8.48-14.56,8.48A.08.08,0,0,1,43.61,317.06Z"></path><path class="cls-29" d="M135,279.78c-.16-.13-.14-.22-.08-.26l5.61-3.24h21a.13.13,0,0,1,.14.13.14.14,0,0,1-.14.14H140.6L135,279.76A.1.1,0,0,1,135,279.78Z"></path><path class="cls-29" d="M38.4,283.08a.13.13,0,0,1-.13-.14V258.29a.13.13,0,0,1,.13-.14.14.14,0,0,1,.14.14v24.65A.14.14,0,0,1,38.4,283.08Z"></path><path class="cls-29" d="M36.65,283.08a.14.14,0,0,1-.14-.14V258.29a.14.14,0,1,1,.28,0v24.65A.14.14,0,0,1,36.65,283.08Z"></path><path class="cls-29" d="M80.81,352.59c-.07,0-36.41-21-36.41-21a.13.13,0,0,1,0-.19.13.13,0,0,1,.19,0l36.27,20.94,18.63-10.75V331.7a.14.14,0,0,1,.28,0v9.92c-.07.12-18.83,10.95-18.83,10.95A.12.12,0,0,1,80.81,352.59Z"></path><polygon class="cls-29" points="161.51 275.56 128.63 294.54 158.16 311.59 190.8 292.6 161.51 275.56"></polygon><polygon class="cls-25" points="96.11 286.73 93.59 288.19 91.08 286.73 93.59 285.28 96.11 286.73"></polygon><polygon class="cls-25" points="69.91 314.69 67.39 316.15 64.87 314.69 67.39 313.24 69.91 314.69"></polygon><polygon class="cls-25" points="59.64 259.8 57.12 261.26 54.6 259.8 57.12 258.35 59.64 259.8"></polygon><polygon class="cls-25" points="110.56 336.32 108.04 337.78 105.52 336.32 108.04 334.87 110.56 336.32"></polygon><polygon class="cls-25" points="47.99 266.25 45.48 267.7 42.96 266.25 45.48 264.8 47.99 266.25"></polygon><polygon class="cls-25" points="138.82 321.29 136.3 322.74 133.78 321.29 136.3 319.83 138.82 321.29"></polygon><polygon class="cls-25" points="126.34 269.59 123.82 271.05 121.31 269.59 123.82 268.14 126.34 269.59"></polygon><path class="cls-29" d="M91.5,263.29c-.15-.14-.13-.23-.07-.26l13.16-7.6V239.1a.14.14,0,0,1,.28,0v16.41c-.06.12-13.29,7.76-13.29,7.76Z"></path><path class="cls-29" d="M93,264.23c-.16-.13-.13-.22-.07-.26l13.41-7.74V239.45a.14.14,0,0,1,.28,0v16.86c-.07.13-13.55,7.9-13.55,7.9A.08.08,0,0,1,93,264.23Z"></path></g><g id="Axonometric_Cube-2" data-name="Axonometric Cube"><polygon id="Cube_face_-_left-2" data-name="Cube face - left" class="cls-31" points="138.38 317.3 125.51 309.86 125.51 308.73 138.38 316.17 138.38 317.3"></polygon><polygon id="Cube_face_-_right-2" data-name="Cube face - right" class="cls-32" points="140.47 316.09 138.38 317.3 138.38 316.17 140.47 314.96 140.47 316.09"></polygon><polygon id="Cube_face_-_top-3" data-name="Cube face - top" class="cls-22" points="138.38 316.17 125.51 308.73 127.6 307.53 140.47 314.96 138.38 316.17"></polygon><polygon class="cls-31" points="126.64 308.73 127.6 308.18 139.34 314.96 138.38 315.52 126.64 308.73"></polygon></g><g id="Axonometric_Cube-3" data-name="Axonometric Cube"><polygon id="Cube_face_-_left-3" data-name="Cube face - left" class="cls-31" points="143.01 314.63 130.13 307.2 130.13 306.07 143.01 313.5 143.01 314.63"></polygon><polygon id="Cube_face_-_right-3" data-name="Cube face - right" class="cls-32" points="145.09 313.43 143.01 314.63 143.01 313.5 145.09 312.3 145.09 313.43"></polygon><polygon id="Cube_face_-_top-4" data-name="Cube face - top" class="cls-22" points="143.01 313.5 130.13 306.07 132.22 304.86 145.09 312.3 143.01 313.5"></polygon><polygon class="cls-31" points="131.26 306.07 132.22 305.51 143.97 312.3 143.01 312.85 131.26 306.07"></polygon></g><g id="Axonometric_Cube-4" data-name="Axonometric Cube"><polygon id="Cube_face_-_left-4" data-name="Cube face - left" class="cls-31" points="21.74 297.28 5.24 287.75 5.24 283.75 21.74 293.27 21.74 297.28"></polygon><polygon id="Cube_face_-_right-4" data-name="Cube face - right" class="cls-32" points="24.46 295.71 21.74 297.28 21.74 293.27 24.46 291.7 24.46 295.71"></polygon><polygon id="Cube_face_-_top-5" data-name="Cube face - top" class="cls-22" points="21.74 293.27 5.24 283.75 7.96 282.17 24.46 291.7 21.74 293.27"></polygon><polygon class="cls-31" points="6.71 283.75 7.96 283.02 22.99 291.7 21.74 292.43 6.71 283.75"></polygon></g><g id="Axonometric_Cube-5" data-name="Axonometric Cube"><polygon id="Cube_face_-_left-5" data-name="Cube face - left" class="cls-31" points="42.66 309.36 26.16 299.83 26.16 295.83 42.66 305.35 42.66 309.36"></polygon><polygon id="Cube_face_-_right-5" data-name="Cube face - right" class="cls-32" points="45.39 307.79 42.66 309.36 42.66 305.35 45.39 303.78 45.39 307.79"></polygon><polygon id="Cube_face_-_top-6" data-name="Cube face - top" class="cls-22" points="42.66 305.35 26.16 295.83 28.89 294.25 45.39 303.78 42.66 305.35"></polygon><polygon class="cls-31" points="27.63 295.83 28.89 295.1 43.92 303.78 42.66 304.51 27.63 295.83"></polygon></g><g id="Axonometric_Cube-6" data-name="Axonometric Cube"><polygon id="Cube_face_-_left-6" data-name="Cube face - left" class="cls-32" points="67.06 293.3 79.94 285.87 79.94 284.74 67.06 292.17 67.06 293.3"></polygon><polygon id="Cube_face_-_right-6" data-name="Cube face - right" class="cls-31" points="64.98 292.09 67.06 293.3 67.06 292.17 64.98 290.96 64.98 292.09"></polygon><polygon id="Cube_face_-_top-7" data-name="Cube face - top" class="cls-22" points="67.06 292.17 79.94 284.74 77.85 283.53 64.98 290.96 67.06 292.17"></polygon><polygon class="cls-31" points="78.81 284.74 77.85 284.18 66.11 290.96 67.06 291.52 78.81 284.74"></polygon></g><g id="Axonometric_Cube-7" data-name="Axonometric Cube"><polygon id="Cube_face_-_left-7" data-name="Cube face - left" class="cls-32" points="71.48 295.85 84.36 288.42 84.36 287.29 71.48 294.72 71.48 295.85"></polygon><polygon id="Cube_face_-_right-7" data-name="Cube face - right" class="cls-31" points="69.4 294.64 71.48 295.85 71.48 294.72 69.4 293.51 69.4 294.64"></polygon><polygon id="Cube_face_-_top-8" data-name="Cube face - top" class="cls-22" points="71.48 294.72 84.36 287.29 82.27 286.08 69.4 293.51 71.48 294.72"></polygon><polygon class="cls-31" points="83.23 287.29 82.27 286.73 70.52 293.52 71.48 294.07 83.23 287.29"></polygon></g><g id="Axonometric_Cube-8" data-name="Axonometric Cube"><polygon id="Cube_face_-_left-8" data-name="Cube face - left" class="cls-26" points="91.07 295.54 86.1 292.68 86.1 291.36 91.07 294.22 91.07 295.54"></polygon><polygon id="Cube_face_-_right-8" data-name="Cube face - right" class="cls-27" points="94.08 293.8 91.07 295.54 91.07 294.22 94.08 292.48 94.08 293.8"></polygon><polygon id="Cube_face_-_top-9" data-name="Cube face - top" class="cls-33" points="91.07 294.22 86.1 291.36 89.11 289.62 94.08 292.48 91.07 294.22"></polygon></g><g id="Axonometric_Cube-9" data-name="Axonometric Cube"><polygon id="Cube_face_-_left-9" data-name="Cube face - left" class="cls-26" points="85.68 298.65 80.71 295.79 80.71 294.47 85.68 297.33 85.68 298.65"></polygon><polygon id="Cube_face_-_right-9" data-name="Cube face - right" class="cls-27" points="88.69 296.92 85.68 298.65 85.68 297.33 88.69 295.6 88.69 296.92"></polygon><polygon id="Cube_face_-_top-10" data-name="Cube face - top" class="cls-33" points="85.68 297.33 80.71 294.47 83.72 292.73 88.69 295.6 85.68 297.33"></polygon></g><g id="Axonometric_Cube-10" data-name="Axonometric Cube"><polygon id="Cube_face_-_left-10" data-name="Cube face - left" class="cls-26" points="80.28 301.77 75.32 298.9 75.32 297.58 80.28 300.45 80.28 301.77"></polygon><polygon id="Cube_face_-_right-10" data-name="Cube face - right" class="cls-27" points="83.3 300.03 80.28 301.77 80.28 300.45 83.3 298.71 83.3 300.03"></polygon><polygon id="Cube_face_-_top-11" data-name="Cube face - top" class="cls-33" points="80.28 300.45 75.32 297.58 78.33 295.84 83.3 298.71 80.28 300.45"></polygon></g><g id="Axonometric_Cube-11" data-name="Axonometric Cube"><polygon id="Cube_face_-_left-11" data-name="Cube face - left" class="cls-26" points="123.03 327.02 118.06 324.15 118.06 322.83 123.03 325.7 123.03 327.02"></polygon><polygon id="Cube_face_-_right-11" data-name="Cube face - right" class="cls-27" points="126.04 325.28 123.03 327.02 123.03 325.7 126.04 323.96 126.04 325.28"></polygon><polygon id="Cube_face_-_top-12" data-name="Cube face - top" class="cls-33" points="123.03 325.7 118.06 322.83 121.07 321.09 126.04 323.96 123.03 325.7"></polygon></g><g id="Axonometric_Cube-12" data-name="Axonometric Cube"><polygon id="Cube_face_-_left-12" data-name="Cube face - left" class="cls-26" points="117.63 330.13 112.67 327.26 112.67 325.94 117.63 328.81 117.63 330.13"></polygon><polygon id="Cube_face_-_right-12" data-name="Cube face - right" class="cls-27" points="120.65 328.39 117.63 330.13 117.63 328.81 120.65 327.07 120.65 328.39"></polygon><polygon id="Cube_face_-_top-13" data-name="Cube face - top" class="cls-33" points="117.63 328.81 112.67 325.94 115.68 324.2 120.65 327.07 117.63 328.81"></polygon></g><g id="Axonometric_Cube-13" data-name="Axonometric Cube"><polygon id="Cube_face_-_left-13" data-name="Cube face - left" class="cls-26" points="112.24 333.24 107.28 330.37 107.28 329.05 112.24 331.92 112.24 333.24"></polygon><polygon id="Cube_face_-_right-13" data-name="Cube face - right" class="cls-27" points="115.26 331.5 112.24 333.24 112.24 331.92 115.26 330.18 115.26 331.5"></polygon><polygon id="Cube_face_-_top-14" data-name="Cube face - top" class="cls-33" points="112.24 331.92 107.28 329.05 110.29 327.31 115.26 330.18 112.24 331.92"></polygon></g><g id="Axonometric_Cube-14" data-name="Axonometric Cube"><polygon id="Cube_face_-_left-14" data-name="Cube face - left" class="cls-26" points="77.8 271.13 72.84 268.26 72.84 266.94 77.8 269.81 77.8 271.13"></polygon><polygon id="Cube_face_-_right-14" data-name="Cube face - right" class="cls-27" points="80.81 269.39 77.8 271.13 77.8 269.81 80.81 268.07 80.81 269.39"></polygon><polygon id="Cube_face_-_top-15" data-name="Cube face - top" class="cls-33" points="77.8 269.81 72.84 266.94 75.85 265.2 80.81 268.07 77.8 269.81"></polygon></g><g id="Axonometric_Cube-15" data-name="Axonometric Cube"><polygon id="Cube_face_-_left-15" data-name="Cube face - left" class="cls-26" points="72.41 274.24 67.45 271.37 67.45 270.05 72.41 272.92 72.41 274.24"></polygon><polygon id="Cube_face_-_right-15" data-name="Cube face - right" class="cls-27" points="75.42 272.5 72.41 274.24 72.41 272.92 75.42 271.18 75.42 272.5"></polygon><polygon id="Cube_face_-_top-16" data-name="Cube face - top" class="cls-33" points="72.41 272.92 67.45 270.05 70.46 268.31 75.42 271.18 72.41 272.92"></polygon></g><g id="Axonometric_Cube-16" data-name="Axonometric Cube"><polygon id="Cube_face_-_left-16" data-name="Cube face - left" class="cls-26" points="138.15 273.21 133.18 270.35 133.18 269.03 138.15 271.89 138.15 273.21"></polygon><polygon id="Cube_face_-_right-16" data-name="Cube face - right" class="cls-27" points="141.16 271.47 138.15 273.21 138.15 271.89 141.16 270.15 141.16 271.47"></polygon><polygon id="Cube_face_-_top-17" data-name="Cube face - top" class="cls-33" points="138.15 271.89 133.18 269.03 136.19 267.29 141.16 270.15 138.15 271.89"></polygon></g><g id="Axonometric_Cube-17" data-name="Axonometric Cube"><polygon id="Cube_face_-_left-17" data-name="Cube face - left" class="cls-26" points="132.76 276.32 127.79 273.46 127.79 272.14 132.76 275.01 132.76 276.32"></polygon><polygon id="Cube_face_-_right-17" data-name="Cube face - right" class="cls-27" points="135.77 274.59 132.76 276.32 132.76 275.01 135.77 273.27 135.77 274.59"></polygon><polygon id="Cube_face_-_top-18" data-name="Cube face - top" class="cls-33" points="132.76 275.01 127.79 272.14 130.8 270.4 135.77 273.27 132.76 275.01"></polygon></g><polygon id="Cube_face_-_top-19" data-name="Cube face - top" class="cls-29" points="104 299.47 99.58 296.92 106.65 292.84 111.07 295.39 104 299.47"></polygon><g id="Axonometric_Cube-18" data-name="Axonometric Cube"><polygon id="Cube_face_-_left-18" data-name="Cube face - left" class="cls-9" points="104.06 298.19 100.58 296.18 100.58 296.89 104.06 298.9 104.06 298.19"></polygon><polygon id="Cube_face_-_right-18" data-name="Cube face - right" class="cls-34" points="110.19 295.35 104.06 298.9 104.06 298.19 110.19 294.65 110.19 295.35"></polygon><polygon id="Cube_face_-_top-20" data-name="Cube face - top" class="cls-25" points="104.06 298.19 100.58 296.18 106.71 292.64 110.19 294.65 104.06 298.19"></polygon></g><polygon id="Cube_face_-_top-21" data-name="Cube face - top" class="cls-29" points="111.59 303.86 107.17 301.31 114.24 297.22 118.66 299.77 111.59 303.86"></polygon><g id="Axonometric_Cube-19" data-name="Axonometric Cube"><polygon id="Cube_face_-_left-19" data-name="Cube face - left" class="cls-9" points="111.65 302.58 108.17 300.57 108.17 301.27 111.65 303.28 111.65 302.58"></polygon><polygon id="Cube_face_-_right-19" data-name="Cube face - right" class="cls-34" points="117.79 299.74 111.65 303.28 111.65 302.58 117.79 299.03 117.79 299.74"></polygon><polygon id="Cube_face_-_top-22" data-name="Cube face - top" class="cls-25" points="111.65 302.58 108.17 300.57 114.31 297.02 117.79 299.03 111.65 302.58"></polygon></g><polygon id="Cube_face_-_top-23" data-name="Cube face - top" class="cls-29" points="119.19 308.24 114.77 305.69 121.84 301.61 126.25 304.16 119.19 308.24"></polygon><g id="Axonometric_Cube-20" data-name="Axonometric Cube"><polygon id="Cube_face_-_left-20" data-name="Cube face - left" class="cls-9" points="119.24 306.96 115.76 304.95 115.76 305.66 119.24 307.67 119.24 306.96"></polygon><polygon id="Cube_face_-_right-20" data-name="Cube face - right" class="cls-34" points="125.38 304.12 119.24 307.67 119.24 306.96 125.38 303.42 125.38 304.12"></polygon><polygon id="Cube_face_-_top-24" data-name="Cube face - top" class="cls-25" points="119.24 306.96 115.76 304.95 121.9 301.41 125.38 303.42 119.24 306.96"></polygon></g><polygon id="Cube_face_-_top-25" data-name="Cube face - top" class="cls-29" points="91.61 306.62 87.2 304.07 94.27 299.99 98.68 302.54 91.61 306.62"></polygon><g id="Axonometric_Cube-21" data-name="Axonometric Cube"><polygon id="Cube_face_-_left-21" data-name="Cube face - left" class="cls-9" points="91.67 305.34 88.19 303.33 88.19 304.04 91.67 306.05 91.67 305.34"></polygon><polygon id="Cube_face_-_right-21" data-name="Cube face - right" class="cls-34" points="97.81 302.5 91.67 306.05 91.67 305.34 97.81 301.8 97.81 302.5"></polygon><polygon id="Cube_face_-_top-26" data-name="Cube face - top" class="cls-25" points="91.67 305.34 88.19 303.33 94.33 299.79 97.81 301.8 91.67 305.34"></polygon></g><polygon id="Cube_face_-_top-27" data-name="Cube face - top" class="cls-29" points="99.21 311.01 94.79 308.46 101.86 304.37 106.28 306.92 99.21 311.01"></polygon><g id="Axonometric_Cube-22" data-name="Axonometric Cube"><polygon id="Cube_face_-_left-22" data-name="Cube face - left" class="cls-9" points="99.27 309.73 95.78 307.72 95.78 308.42 99.27 310.43 99.27 309.73"></polygon><polygon id="Cube_face_-_right-22" data-name="Cube face - right" class="cls-34" points="105.4 306.89 99.27 310.43 99.27 309.73 105.4 306.19 105.4 306.89"></polygon><polygon id="Cube_face_-_top-28" data-name="Cube face - top" class="cls-25" points="99.27 309.73 95.78 307.72 101.92 304.18 105.4 306.19 99.27 309.73"></polygon></g><polygon id="Cube_face_-_top-29" data-name="Cube face - top" class="cls-29" points="106.8 315.39 102.38 312.84 109.45 308.76 113.87 311.31 106.8 315.39"></polygon><g id="Axonometric_Cube-23" data-name="Axonometric Cube"><polygon id="Cube_face_-_left-23" data-name="Cube face - left" class="cls-9" points="106.86 314.11 103.38 312.1 103.38 312.81 106.86 314.82 106.86 314.11"></polygon><polygon id="Cube_face_-_right-23" data-name="Cube face - right" class="cls-34" points="113 311.27 106.86 314.82 106.86 314.11 113 310.57 113 311.27"></polygon><polygon id="Cube_face_-_top-30" data-name="Cube face - top" class="cls-25" points="106.86 314.11 103.38 312.1 109.51 308.56 113 310.57 106.86 314.11"></polygon></g><polygon id="Cube_face_-_top-31" data-name="Cube face - top" class="cls-29" points="98.65 280.24 88.42 274.33 107.96 263.05 118.19 268.96 98.65 280.24"></polygon><g id="Axonometric_Cube-24" data-name="Axonometric Cube"><polygon id="Cube_face_-_left-24" data-name="Cube face - left" class="cls-9" points="98.71 278.91 89.45 273.57 89.45 274.3 98.71 279.64 98.71 278.91"></polygon><polygon id="Cube_face_-_right-24" data-name="Cube face - right" class="cls-34" points="117.28 268.92 98.71 279.64 98.71 278.91 117.28 268.19 117.28 268.92"></polygon><polygon id="Cube_face_-_top-32" data-name="Cube face - top" class="cls-25" points="98.71 278.91 89.45 273.57 108.03 262.84 117.28 268.19 98.71 278.91"></polygon></g><g id="Axonometric_Cube-25" data-name="Axonometric Cube"><polygon id="Cube_face_-_left-25" data-name="Cube face - left" class="cls-7" points="70.41 263.63 57.12 255.96 57.12 254.68 70.41 262.35 70.41 263.63"></polygon><polygon id="Cube_face_-_right-25" data-name="Cube face - right" class="cls-4" points="107.53 242.2 70.41 263.63 70.41 262.35 107.53 240.93 107.53 242.2"></polygon><polygon id="Cube_face_-_top-33" data-name="Cube face - top" class="cls-35" points="70.41 262.35 57.12 254.68 94.23 233.25 107.53 240.93 70.41 262.35"></polygon></g><path class="cls-25" d="M76.6,248.69,63.77,256.1l-2.66-1.54,12.83-7.41Zm-11.85,8,.8.47,5.59-3.23-.81-.46Zm6.4-3.7.8.47,1.46-.84-.81-.46Z"></path><polygon class="cls-36" points="101.38 239.69 96.86 242.3 99.21 243.66 103.73 241.05 101.38 239.69"></polygon><polygon class="cls-36" points="95.25 243.22 93 244.53 95.35 245.89 97.61 244.58 95.25 243.22"></polygon><g id="Axonometric_Cube-26" data-name="Axonometric Cube"><polygon id="Cube_face_-_left-26" data-name="Cube face - left" class="cls-7" points="187.75 286.95 160.29 271.09 160.29 277.32 187.75 293.18 187.75 286.95"></polygon><polygon id="Cube_face_-_right-26" data-name="Cube face - right" class="cls-4" points="189.04 292.43 187.75 293.18 187.75 286.95 189.04 286.2 189.04 292.43"></polygon><polygon id="Cube_face_-_top-34" data-name="Cube face - top" class="cls-6" points="187.75 286.95 160.29 271.09 161.58 270.35 189.04 286.2 187.75 286.95"></polygon></g><g id="Axonometric_Cube-27" data-name="Axonometric Cube"><polygon id="Cube_face_-_left-27" data-name="Cube face - left" class="cls-7" points="183.58 289.36 156.12 273.5 156.12 279.73 183.58 295.58 183.58 289.36"></polygon><polygon id="Cube_face_-_right-27" data-name="Cube face - right" class="cls-4" points="184.87 294.84 183.58 295.58 183.58 289.36 184.87 288.61 184.87 294.84"></polygon><polygon id="Cube_face_-_top-35" data-name="Cube face - top" class="cls-6" points="183.58 289.36 156.12 273.5 157.41 272.75 184.87 288.61 183.58 289.36"></polygon></g><g id="Axonometric_Cube-28" data-name="Axonometric Cube"><polygon id="Cube_face_-_left-28" data-name="Cube face - left" class="cls-7" points="179.41 291.76 151.95 275.91 151.95 282.13 179.41 297.99 179.41 291.76"></polygon><polygon id="Cube_face_-_right-28" data-name="Cube face - right" class="cls-4" points="180.7 297.25 179.41 297.99 179.41 291.76 180.7 291.02 180.7 297.25"></polygon><polygon id="Cube_face_-_top-36" data-name="Cube face - top" class="cls-6" points="179.41 291.76 151.95 275.91 153.24 275.16 180.7 291.02 179.41 291.76"></polygon></g><g id="Axonometric_Cube-29" data-name="Axonometric Cube"><polygon id="Cube_face_-_left-29" data-name="Cube face - left" class="cls-7" points="175.24 294.17 147.78 278.31 147.78 284.54 175.24 300.4 175.24 294.17"></polygon><polygon id="Cube_face_-_right-29" data-name="Cube face - right" class="cls-4" points="176.53 299.65 175.24 300.4 175.24 294.17 176.53 293.43 176.53 299.65"></polygon><polygon id="Cube_face_-_top-37" data-name="Cube face - top" class="cls-6" points="175.24 294.17 147.78 278.31 149.07 277.57 176.53 293.43 175.24 294.17"></polygon></g><g id="Axonometric_Cube-30" data-name="Axonometric Cube"><polygon id="Cube_face_-_left-30" data-name="Cube face - left" class="cls-7" points="171.07 296.58 143.61 280.72 143.61 286.95 171.07 302.81 171.07 296.58"></polygon><polygon id="Cube_face_-_right-30" data-name="Cube face - right" class="cls-4" points="172.36 302.06 171.07 302.81 171.07 296.58 172.36 295.83 172.36 302.06"></polygon><polygon id="Cube_face_-_top-38" data-name="Cube face - top" class="cls-6" points="171.07 296.58 143.61 280.72 144.9 279.98 172.36 295.83 171.07 296.58"></polygon></g><g id="Axonometric_Cube-31" data-name="Axonometric Cube"><polygon id="Cube_face_-_left-31" data-name="Cube face - left" class="cls-7" points="166.9 298.99 139.44 283.13 139.44 289.36 166.9 305.21 166.9 298.99"></polygon><polygon id="Cube_face_-_right-31" data-name="Cube face - right" class="cls-4" points="168.19 304.47 166.9 305.21 166.9 298.99 168.19 298.24 168.19 304.47"></polygon><polygon id="Cube_face_-_top-39" data-name="Cube face - top" class="cls-6" points="166.9 298.99 139.44 283.13 140.73 282.38 168.19 298.24 166.9 298.99"></polygon></g><g id="Axonometric_Cube-32" data-name="Axonometric Cube"><polygon id="Cube_face_-_left-32" data-name="Cube face - left" class="cls-7" points="162.73 301.39 135.27 285.54 135.27 291.76 162.73 307.62 162.73 301.39"></polygon><polygon id="Cube_face_-_right-32" data-name="Cube face - right" class="cls-4" points="164.02 306.88 162.73 307.62 162.73 301.39 164.02 300.65 164.02 306.88"></polygon><polygon id="Cube_face_-_top-40" data-name="Cube face - top" class="cls-6" points="162.73 301.39 135.27 285.54 136.56 284.79 164.02 300.65 162.73 301.39"></polygon></g><g id="Axonometric_Cube-33" data-name="Axonometric Cube"><polygon id="Cube_face_-_left-33" data-name="Cube face - left" class="cls-7" points="158.56 303.8 131.1 287.94 131.1 294.17 158.56 310.03 158.56 303.8"></polygon><polygon id="Cube_face_-_right-33" data-name="Cube face - right" class="cls-4" points="159.85 309.28 158.56 310.03 158.56 303.8 159.85 303.06 159.85 309.28"></polygon><polygon id="Cube_face_-_top-41" data-name="Cube face - top" class="cls-6" points="158.56 303.8 131.1 287.94 132.39 287.2 159.85 303.06 158.56 303.8"></polygon></g><g id="Axonometric_Cylinder" data-name="Axonometric Cylinder"><path class="cls-37" d="M77.9,272.66v4.66a1,1,0,0,0,.55.78,3,3,0,0,0,2.66,0,1,1,0,0,0,.55-.76v-4.66Z"></path><path id="Cylinder_face" data-name="Cylinder face" class="cls-38" d="M81.11,273.44a.82.82,0,0,0,0-1.54,3,3,0,0,0-2.66,0,.82.82,0,0,0,0,1.54A3,3,0,0,0,81.11,273.44Z"></path></g><g id="Axonometric_Cylinder-2" data-name="Axonometric Cylinder"><path class="cls-39" d="M83,275.6v4.66a.89.89,0,0,0,.55.78,2.94,2.94,0,0,0,2.65,0,.91.91,0,0,0,.55-.76v-4.66Z"></path><path id="Cylinder_face-2" data-name="Cylinder face" class="cls-40" d="M86.2,276.38a.8.8,0,0,0,0-1.53,2.88,2.88,0,0,0-2.65,0,.8.8,0,0,0,0,1.53A2.94,2.94,0,0,0,86.2,276.38Z"></path></g><g id="Axonometric_Cylinder-3" data-name="Axonometric Cylinder"><path class="cls-41" d="M88.09,278.55v4.66a.93.93,0,0,0,.55.77,2.9,2.9,0,0,0,2.66,0,.93.93,0,0,0,.55-.75v-4.66Z"></path><path id="Cylinder_face-3" data-name="Cylinder face" class="cls-42" d="M91.3,279.32a.81.81,0,0,0,0-1.53,3,3,0,0,0-2.66,0,.81.81,0,0,0,0,1.53A2.9,2.9,0,0,0,91.3,279.32Z"></path></g><g id="Axonometric_Cylinder-4" data-name="Axonometric Cylinder"><path class="cls-43" d="M65.5,318.37V323a1,1,0,0,0,.55.78,3,3,0,0,0,2.66,0,.93.93,0,0,0,.55-.76v-4.66Z"></path><path id="Cylinder_face-4" data-name="Cylinder face" class="cls-44" d="M68.71,319.15a.82.82,0,0,0,0-1.54,3,3,0,0,0-2.66,0,.82.82,0,0,0,0,1.54A3,3,0,0,0,68.71,319.15Z"></path></g><g id="Axonometric_Cylinder-5" data-name="Axonometric Cylinder"><path class="cls-45" d="M70.6,321.31V326a.92.92,0,0,0,.55.78,3,3,0,0,0,2.66,0,1,1,0,0,0,.55-.76v-4.66Z"></path><path id="Cylinder_face-5" data-name="Cylinder face" class="cls-46" d="M73.81,322.09a.81.81,0,0,0,0-1.53,2.9,2.9,0,0,0-2.66,0,.8.8,0,0,0,0,1.53A3,3,0,0,0,73.81,322.09Z"></path></g><g id="Axonometric_Cylinder-6" data-name="Axonometric Cylinder"><path class="cls-47" d="M134.26,254.9v7a1.4,1.4,0,0,0,.83,1.16,4.38,4.38,0,0,0,4,0,1.41,1.41,0,0,0,.82-1.13v-6.95Z"></path><path id="Cylinder_face-6" data-name="Cylinder face" class="cls-48" d="M139.05,256.06a1.21,1.21,0,0,0,0-2.29,4.38,4.38,0,0,0-4,0,1.21,1.21,0,0,0,0,2.29A4.38,4.38,0,0,0,139.05,256.06Z"></path><path id="Cylinder_face-7" data-name="Cylinder face" class="cls-27" d="M138.36,255.66a.79.79,0,0,0,0-1.49,2.86,2.86,0,0,0-2.58,0,.79.79,0,0,0,0,1.49A2.86,2.86,0,0,0,138.36,255.66Z"></path></g><g id="Axonometric_Cylinder-7" data-name="Axonometric Cylinder"><path class="cls-49" d="M141.87,259.29v6.95a1.37,1.37,0,0,0,.82,1.16,4.38,4.38,0,0,0,4,0,1.39,1.39,0,0,0,.82-1.13v-6.95Z"></path><path id="Cylinder_face-8" data-name="Cylinder face" class="cls-50" d="M146.65,260.45a1.21,1.21,0,0,0,0-2.29,4.38,4.38,0,0,0-4,0,1.21,1.21,0,0,0,0,2.29A4.38,4.38,0,0,0,146.65,260.45Z"></path><path id="Cylinder_face-9" data-name="Cylinder face" class="cls-27" d="M146,260.05a.79.79,0,0,0,0-1.49,2.86,2.86,0,0,0-2.58,0,.79.79,0,0,0,0,1.49A2.86,2.86,0,0,0,146,260.05Z"></path></g><g id="Axonometric_Cylinder-8" data-name="Axonometric Cylinder"><path class="cls-51" d="M149.47,263.68v6.95a1.37,1.37,0,0,0,.82,1.16,4.38,4.38,0,0,0,4,0,1.4,1.4,0,0,0,.82-1.13v-7Z"></path><path id="Cylinder_face-10" data-name="Cylinder face" class="cls-52" d="M154.25,264.83a1.2,1.2,0,0,0,0-2.28,4.32,4.32,0,0,0-4,0,1.2,1.2,0,0,0,0,2.28A4.32,4.32,0,0,0,154.25,264.83Z"></path><path id="Cylinder_face-11" data-name="Cylinder face" class="cls-27" d="M153.56,264.43a.78.78,0,0,0,0-1.48,2.86,2.86,0,0,0-2.58,0,.78.78,0,0,0,0,1.48A2.86,2.86,0,0,0,153.56,264.43Z"></path></g><g id="Axonometric_Cylinder-9" data-name="Axonometric Cylinder"><path class="cls-53" d="M53.06,257.18v4.66a1,1,0,0,1-.55.78,3,3,0,0,1-2.66,0,.93.93,0,0,1-.55-.76V257.2Z"></path><path id="Cylinder_face-12" data-name="Cylinder face" class="cls-54" d="M49.85,258a.82.82,0,0,1,0-1.54,3,3,0,0,1,2.66,0,.82.82,0,0,1,0,1.54A3,3,0,0,1,49.85,258Z"></path></g><g id="Axonometric_Cylinder-10" data-name="Axonometric Cylinder"><path class="cls-55" d="M26.6,272.46v4.66a1,1,0,0,1-.55.78,3,3,0,0,1-2.66,0,1,1,0,0,1-.55-.76v-4.66Z"></path><path id="Cylinder_face-13" data-name="Cylinder face" class="cls-56" d="M23.39,273.23a.8.8,0,0,1,0-1.53,3,3,0,0,1,2.66,0,.81.81,0,0,1,0,1.53A2.9,2.9,0,0,1,23.39,273.23Z"></path></g><g id="Axonometric_Cylinder-11" data-name="Axonometric Cylinder"><path class="cls-57" d="M21.5,275.4v4.66a1,1,0,0,1-.55.78,3,3,0,0,1-2.66,0,1,1,0,0,1-.55-.76v-4.66Z"></path><path id="Cylinder_face-14" data-name="Cylinder face" class="cls-58" d="M18.29,276.18a.82.82,0,0,1,0-1.54,3,3,0,0,1,2.66,0,.82.82,0,0,1,0,1.54A3,3,0,0,1,18.29,276.18Z"></path></g><polygon class="cls-34" points="173.91 103.01 173.91 126.63 233.35 160.95 233.38 137.35 173.91 103.01"></polygon><g id="Axonometric_Cube-34" data-name="Axonometric Cube"><polygon id="Cube_face_-_left-34" data-name="Cube face - left" class="cls-59" points="233.42 162.63 100.77 86.04 100.77 76.03 233.42 152.62 233.42 162.63"></polygon><polygon id="Cube_face_-_top-42" data-name="Cube face - top" class="cls-10" points="233.42 152.62 100.77 76.03 102.68 74.93 233.39 150.39 233.42 152.62"></polygon></g><path class="cls-20" d="M113.22,89.74l-2.62-1.51a2.74,2.74,0,0,1-1.31-2.07c0-.72.59-1,1.31-.56l2.62,1.51a2.74,2.74,0,0,1,1.31,2.07C114.53,89.91,113.94,90.16,113.22,89.74Z"></path><path class="cls-20" d="M122.88,95.31l-2.62-1.51A2.71,2.71,0,0,1,119,91.73c0-.72.59-1,1.31-.55l2.62,1.51a2.73,2.73,0,0,1,1.31,2.07C124.19,95.48,123.6,95.73,122.88,95.31Z"></path><path class="cls-20" d="M146.44,108.92l-2.61-1.51a2.7,2.7,0,0,1-1.31-2.07c0-.72.58-1,1.31-.55l2.61,1.51a2.71,2.71,0,0,1,1.32,2.07C147.76,109.09,147.17,109.34,146.44,108.92Z"></path><path class="cls-20" d="M156.1,114.5,153.49,113a2.73,2.73,0,0,1-1.32-2.07c0-.73.59-1,1.32-.56l2.61,1.51a2.72,2.72,0,0,1,1.31,2.07C157.41,114.67,156.83,114.91,156.1,114.5Z"></path><path class="cls-34" d="M179.67,128.1l-2.62-1.51a2.71,2.71,0,0,1-1.31-2.07c0-.72.59-1,1.31-.55l2.62,1.51a2.74,2.74,0,0,1,1.31,2.07C181,128.27,180.39,128.52,179.67,128.1Z"></path><path class="cls-34" d="M189.33,133.68l-2.62-1.51a2.74,2.74,0,0,1-1.31-2.07c0-.72.59-1,1.31-.55l2.62,1.51a2.71,2.71,0,0,1,1.31,2.06C190.64,133.85,190.05,134.1,189.33,133.68Z"></path><path class="cls-34" d="M212.9,147.29l-2.62-1.51a2.74,2.74,0,0,1-1.31-2.07c0-.73.59-1,1.31-.56l2.62,1.51a2.74,2.74,0,0,1,1.31,2.07C214.21,147.46,213.62,147.7,212.9,147.29Z"></path><path class="cls-34" d="M222.55,152.86l-2.61-1.51a2.7,2.7,0,0,1-1.31-2.07c0-.72.58-1,1.31-.55l2.61,1.51a2.7,2.7,0,0,1,1.31,2.07C223.86,153,223.28,153.28,222.55,152.86Z"></path><g id="Axonometric_Cube-35" data-name="Axonometric Cube"><polygon id="Cube_face_-_left-35" data-name="Cube face - left" class="cls-7" points="43.34 274.01 39.65 271.88 39.65 271.52 43.34 273.66 43.34 274.01"></polygon><polygon id="Cube_face_-_right-34" data-name="Cube face - right" class="cls-4" points="44.28 273.47 43.34 274.01 43.34 273.66 44.28 273.12 44.28 273.47"></polygon><polygon id="Cube_face_-_top-43" data-name="Cube face - top" class="cls-6" points="43.34 273.66 39.65 271.52 40.59 270.98 44.28 273.12 43.34 273.66"></polygon></g><g id="Axonometric_Cube-36" data-name="Axonometric Cube"><polygon id="Cube_face_-_left-36" data-name="Cube face - left" class="cls-7" points="41.34 275.16 37.65 273.03 37.65 272.68 41.34 274.81 41.34 275.16"></polygon><polygon id="Cube_face_-_right-35" data-name="Cube face - right" class="cls-4" points="42.28 274.62 41.34 275.16 41.34 274.81 42.28 274.27 42.28 274.62"></polygon><polygon id="Cube_face_-_top-44" data-name="Cube face - top" class="cls-6" points="41.34 274.81 37.65 272.68 38.59 272.14 42.28 274.27 41.34 274.81"></polygon></g><g id="Axonometric_Cube-37" data-name="Axonometric Cube"><polygon id="Cube_face_-_left-37" data-name="Cube face - left" class="cls-7" points="39.34 276.32 35.65 274.19 35.65 273.84 39.34 275.97 39.34 276.32"></polygon><polygon id="Cube_face_-_right-36" data-name="Cube face - right" class="cls-4" points="40.28 275.78 39.34 276.32 39.34 275.97 40.28 275.43 40.28 275.78"></polygon><polygon id="Cube_face_-_top-45" data-name="Cube face - top" class="cls-6" points="39.34 275.97 35.65 273.84 36.59 273.29 40.28 275.43 39.34 275.97"></polygon></g><g id="Axonometric_Cube-38" data-name="Axonometric Cube"><polygon id="Cube_face_-_left-38" data-name="Cube face - left" class="cls-7" points="37.34 277.48 33.65 275.34 33.65 274.99 37.34 277.12 37.34 277.48"></polygon><polygon id="Cube_face_-_right-37" data-name="Cube face - right" class="cls-4" points="38.28 276.93 37.34 277.48 37.34 277.12 38.28 276.58 38.28 276.93"></polygon><polygon id="Cube_face_-_top-46" data-name="Cube face - top" class="cls-6" points="37.34 277.12 33.65 274.99 34.59 274.45 38.28 276.58 37.34 277.12"></polygon></g><g id="Axonometric_Cube-39" data-name="Axonometric Cube"><polygon id="Cube_face_-_left-39" data-name="Cube face - left" class="cls-7" points="35.34 278.63 31.65 276.5 31.65 276.15 35.34 278.28 35.34 278.63"></polygon><polygon id="Cube_face_-_right-38" data-name="Cube face - right" class="cls-4" points="36.28 278.09 35.34 278.63 35.34 278.28 36.28 277.74 36.28 278.09"></polygon><polygon id="Cube_face_-_top-47" data-name="Cube face - top" class="cls-6" points="35.34 278.28 31.65 276.15 32.58 275.61 36.28 277.74 35.34 278.28"></polygon></g><g id="Axonometric_Cube-40" data-name="Axonometric Cube"><polygon id="Cube_face_-_left-40" data-name="Cube face - left" class="cls-7" points="33.34 279.79 29.64 277.65 29.64 277.3 33.34 279.44 33.34 279.79"></polygon><polygon id="Cube_face_-_right-39" data-name="Cube face - right" class="cls-4" points="34.28 279.24 33.34 279.79 33.34 279.44 34.28 278.89 34.28 279.24"></polygon><polygon id="Cube_face_-_top-48" data-name="Cube face - top" class="cls-6" points="33.34 279.44 29.64 277.3 30.58 276.76 34.28 278.89 33.34 279.44"></polygon></g><g id="Axonometric_Cube-41" data-name="Axonometric Cube"><polygon id="Cube_face_-_left-41" data-name="Cube face - left" class="cls-7" points="31.34 280.94 27.64 278.81 27.64 278.46 31.34 280.59 31.34 280.94"></polygon><polygon id="Cube_face_-_right-40" data-name="Cube face - right" class="cls-4" points="32.28 280.4 31.34 280.94 31.34 280.59 32.28 280.05 32.28 280.4"></polygon><polygon id="Cube_face_-_top-49" data-name="Cube face - top" class="cls-6" points="31.34 280.59 27.64 278.46 28.58 277.92 32.28 280.05 31.34 280.59"></polygon></g><g id="Axonometric_Cube-42" data-name="Axonometric Cube"><polygon id="Cube_face_-_left-42" data-name="Cube face - left" class="cls-7" points="29.34 282.1 25.64 279.96 25.64 279.61 29.34 281.75 29.34 282.1"></polygon><polygon id="Cube_face_-_right-41" data-name="Cube face - right" class="cls-4" points="30.27 281.56 29.34 282.1 29.34 281.75 30.27 281.2 30.27 281.56"></polygon><polygon id="Cube_face_-_top-50" data-name="Cube face - top" class="cls-6" points="29.34 281.75 25.64 279.61 26.58 279.07 30.27 281.2 29.34 281.75"></polygon></g><g id="Axonometric_Cube-43" data-name="Axonometric Cube"><polygon id="Cube_face_-_left-43" data-name="Cube face - left" class="cls-4" points="45.97 273.95 49.66 271.82 49.66 271.47 45.97 273.6 45.97 273.95"></polygon><polygon id="Cube_face_-_right-42" data-name="Cube face - right" class="cls-4" points="45.03 273.41 45.97 273.95 45.97 273.6 45.03 273.06 45.03 273.41"></polygon><polygon id="Cube_face_-_top-51" data-name="Cube face - top" class="cls-6" points="45.97 273.6 49.66 271.47 48.72 270.92 45.03 273.06 45.97 273.6"></polygon></g><g id="Axonometric_Cube-44" data-name="Axonometric Cube"><polygon id="Cube_face_-_left-44" data-name="Cube face - left" class="cls-4" points="47.97 275.11 51.66 272.97 51.66 272.62 47.97 274.75 47.97 275.11"></polygon><polygon id="Cube_face_-_right-43" data-name="Cube face - right" class="cls-4" points="47.03 274.56 47.97 275.11 47.97 274.75 47.03 274.21 47.03 274.56"></polygon><polygon id="Cube_face_-_top-52" data-name="Cube face - top" class="cls-6" points="47.97 274.75 51.66 272.62 50.72 272.08 47.03 274.21 47.97 274.75"></polygon></g><g id="Axonometric_Cube-45" data-name="Axonometric Cube"><polygon id="Cube_face_-_left-45" data-name="Cube face - left" class="cls-4" points="49.97 276.26 53.66 274.13 53.66 273.78 49.97 275.91 49.97 276.26"></polygon><polygon id="Cube_face_-_right-44" data-name="Cube face - right" class="cls-4" points="49.03 275.72 49.97 276.26 49.97 275.91 49.03 275.37 49.03 275.72"></polygon><polygon id="Cube_face_-_top-53" data-name="Cube face - top" class="cls-6" points="49.97 275.91 53.66 273.78 52.72 273.24 49.03 275.37 49.97 275.91"></polygon></g><g id="Axonometric_Cube-46" data-name="Axonometric Cube"><polygon id="Cube_face_-_left-46" data-name="Cube face - left" class="cls-4" points="51.97 277.42 55.66 275.28 55.66 274.93 51.97 277.06 51.97 277.42"></polygon><polygon id="Cube_face_-_right-45" data-name="Cube face - right" class="cls-4" points="51.03 276.87 51.97 277.42 51.97 277.06 51.03 276.52 51.03 276.87"></polygon><polygon id="Cube_face_-_top-54" data-name="Cube face - top" class="cls-6" points="51.97 277.06 55.66 274.93 54.72 274.39 51.03 276.52 51.97 277.06"></polygon></g><g id="Axonometric_Cube-47" data-name="Axonometric Cube"><polygon id="Cube_face_-_left-47" data-name="Cube face - left" class="cls-4" points="53.97 278.57 57.66 276.44 57.66 276.09 53.97 278.22 53.97 278.57"></polygon><polygon id="Cube_face_-_right-46" data-name="Cube face - right" class="cls-4" points="53.03 278.03 53.97 278.57 53.97 278.22 53.03 277.68 53.03 278.03"></polygon><polygon id="Cube_face_-_top-55" data-name="Cube face - top" class="cls-6" points="53.97 278.22 57.66 276.09 56.73 275.55 53.03 277.68 53.97 278.22"></polygon></g><g id="Axonometric_Cube-48" data-name="Axonometric Cube"><polygon id="Cube_face_-_left-48" data-name="Cube face - left" class="cls-4" points="55.97 279.73 59.66 277.59 59.66 277.24 55.97 279.38 55.97 279.73"></polygon><polygon id="Cube_face_-_right-47" data-name="Cube face - right" class="cls-4" points="55.03 279.19 55.97 279.73 55.97 279.38 55.03 278.83 55.03 279.19"></polygon><polygon id="Cube_face_-_top-56" data-name="Cube face - top" class="cls-6" points="55.97 279.38 59.66 277.24 58.73 276.7 55.03 278.83 55.97 279.38"></polygon></g><g id="Axonometric_Cube-49" data-name="Axonometric Cube"><polygon id="Cube_face_-_left-49" data-name="Cube face - left" class="cls-4" points="57.97 280.88 61.67 278.75 61.67 278.4 57.97 280.53 57.97 280.88"></polygon><polygon id="Cube_face_-_right-48" data-name="Cube face - right" class="cls-4" points="57.03 280.34 57.97 280.88 57.97 280.53 57.03 279.99 57.03 280.34"></polygon><polygon id="Cube_face_-_top-57" data-name="Cube face - top" class="cls-6" points="57.97 280.53 61.67 278.4 60.73 277.86 57.03 279.99 57.97 280.53"></polygon></g><g id="Axonometric_Cube-50" data-name="Axonometric Cube"><polygon id="Cube_face_-_left-50" data-name="Cube face - left" class="cls-4" points="59.97 282.04 63.67 279.9 63.67 279.55 59.97 281.69 59.97 282.04"></polygon><polygon id="Cube_face_-_right-49" data-name="Cube face - right" class="cls-4" points="59.03 281.5 59.97 282.04 59.97 281.69 59.03 281.14 59.03 281.5"></polygon><polygon id="Cube_face_-_top-58" data-name="Cube face - top" class="cls-6" points="59.97 281.69 63.67 279.55 62.73 279.01 59.03 281.14 59.97 281.69"></polygon></g><g id="Axonometric_Cube-51" data-name="Axonometric Cube"><polygon id="Cube_face_-_top-59" data-name="Cube face - top" class="cls-25" points="44.68 289.01 28.86 279.88 44.68 270.75 60.5 279.88 44.68 289.01"></polygon><polygon id="Cube_face_-_left-51" data-name="Cube face - left" class="cls-9" points="44.68 291.47 28.86 282.34 28.86 279.88 44.68 289.01 44.68 291.47"></polygon><polygon id="Cube_face_-_right-50" data-name="Cube face - right" class="cls-34" points="60.5 282.34 44.68 291.47 44.68 289.01 60.5 279.88 60.5 282.34"></polygon></g><g id="Axonometric_Cube-52" data-name="Axonometric Cube"><polygon id="Cube_face_-_left-52" data-name="Cube face - left" class="cls-7" points="62.83 285.26 59.14 283.13 59.14 282.77 62.83 284.91 62.83 285.26"></polygon><polygon id="Cube_face_-_right-51" data-name="Cube face - right" class="cls-4" points="63.77 284.72 62.83 285.26 62.83 284.91 63.77 284.37 63.77 284.72"></polygon><polygon id="Cube_face_-_top-60" data-name="Cube face - top" class="cls-6" points="62.83 284.91 59.14 282.77 60.08 282.23 63.77 284.37 62.83 284.91"></polygon></g><g id="Axonometric_Cube-53" data-name="Axonometric Cube"><polygon id="Cube_face_-_left-53" data-name="Cube face - left" class="cls-7" points="60.83 286.41 57.13 284.28 57.13 283.93 60.83 286.06 60.83 286.41"></polygon><polygon id="Cube_face_-_right-52" data-name="Cube face - right" class="cls-4" points="61.77 285.87 60.83 286.41 60.83 286.06 61.77 285.52 61.77 285.87"></polygon><polygon id="Cube_face_-_top-61" data-name="Cube face - top" class="cls-6" points="60.83 286.06 57.13 283.93 58.07 283.39 61.77 285.52 60.83 286.06"></polygon></g><g id="Axonometric_Cube-54" data-name="Axonometric Cube"><polygon id="Cube_face_-_left-54" data-name="Cube face - left" class="cls-7" points="58.83 287.57 55.13 285.44 55.13 285.09 58.83 287.22 58.83 287.57"></polygon><polygon id="Cube_face_-_right-53" data-name="Cube face - right" class="cls-4" points="59.77 287.03 58.83 287.57 58.83 287.22 59.77 286.68 59.77 287.03"></polygon><polygon id="Cube_face_-_top-62" data-name="Cube face - top" class="cls-6" points="58.83 287.22 55.13 285.09 56.07 284.54 59.77 286.68 58.83 287.22"></polygon></g><g id="Axonometric_Cube-55" data-name="Axonometric Cube"><polygon id="Cube_face_-_left-55" data-name="Cube face - left" class="cls-7" points="56.83 288.73 53.13 286.59 53.13 286.24 56.83 288.37 56.83 288.73"></polygon><polygon id="Cube_face_-_right-54" data-name="Cube face - right" class="cls-4" points="57.77 288.18 56.83 288.73 56.83 288.37 57.77 287.83 57.77 288.18"></polygon><polygon id="Cube_face_-_top-63" data-name="Cube face - top" class="cls-6" points="56.83 288.37 53.13 286.24 54.07 285.7 57.77 287.83 56.83 288.37"></polygon></g><g id="Axonometric_Cube-56" data-name="Axonometric Cube"><polygon id="Cube_face_-_left-56" data-name="Cube face - left" class="cls-7" points="54.83 289.88 51.13 287.75 51.13 287.4 54.83 289.53 54.83 289.88"></polygon><polygon id="Cube_face_-_right-55" data-name="Cube face - right" class="cls-4" points="55.76 289.34 54.83 289.88 54.83 289.53 55.76 288.99 55.76 289.34"></polygon><polygon id="Cube_face_-_top-64" data-name="Cube face - top" class="cls-6" points="54.83 289.53 51.13 287.4 52.07 286.86 55.76 288.99 54.83 289.53"></polygon></g><g id="Axonometric_Cube-57" data-name="Axonometric Cube"><polygon id="Cube_face_-_left-57" data-name="Cube face - left" class="cls-7" points="52.82 291.04 49.13 288.9 49.13 288.55 52.82 290.69 52.82 291.04"></polygon><polygon id="Cube_face_-_right-56" data-name="Cube face - right" class="cls-4" points="53.76 290.49 52.82 291.04 52.82 290.69 53.76 290.14 53.76 290.49"></polygon><polygon id="Cube_face_-_top-65" data-name="Cube face - top" class="cls-6" points="52.82 290.69 49.13 288.55 50.07 288.01 53.76 290.14 52.82 290.69"></polygon></g><g id="Axonometric_Cube-58" data-name="Axonometric Cube"><polygon id="Cube_face_-_left-58" data-name="Cube face - left" class="cls-7" points="50.82 292.19 47.13 290.06 47.13 289.71 50.82 291.84 50.82 292.19"></polygon><polygon id="Cube_face_-_right-57" data-name="Cube face - right" class="cls-4" points="51.76 291.65 50.82 292.19 50.82 291.84 51.76 291.3 51.76 291.65"></polygon><polygon id="Cube_face_-_top-66" data-name="Cube face - top" class="cls-6" points="50.82 291.84 47.13 289.71 48.07 289.17 51.76 291.3 50.82 291.84"></polygon></g><g id="Axonometric_Cube-59" data-name="Axonometric Cube"><polygon id="Cube_face_-_left-59" data-name="Cube face - left" class="cls-7" points="48.82 293.35 45.13 291.21 45.13 290.86 48.82 293 48.82 293.35"></polygon><polygon id="Cube_face_-_right-58" data-name="Cube face - right" class="cls-4" points="49.76 292.81 48.82 293.35 48.82 293 49.76 292.45 49.76 292.81"></polygon><polygon id="Cube_face_-_top-67" data-name="Cube face - top" class="cls-6" points="48.82 293 45.13 290.86 46.07 290.32 49.76 292.45 48.82 293"></polygon></g><g id="Axonometric_Cube-60" data-name="Axonometric Cube"><polygon id="Cube_face_-_left-60" data-name="Cube face - left" class="cls-7" points="26.48 285.2 30.17 283.07 30.17 282.72 26.48 284.85 26.48 285.2"></polygon><polygon id="Cube_face_-_right-59" data-name="Cube face - right" class="cls-4" points="25.54 284.66 26.48 285.2 26.48 284.85 25.54 284.31 25.54 284.66"></polygon><polygon id="Cube_face_-_top-68" data-name="Cube face - top" class="cls-6" points="26.48 284.85 30.17 282.72 29.23 282.17 25.54 284.31 26.48 284.85"></polygon></g><g id="Axonometric_Cube-61" data-name="Axonometric Cube"><polygon id="Cube_face_-_left-61" data-name="Cube face - left" class="cls-7" points="28.48 286.36 32.17 284.22 32.17 283.87 28.48 286 28.48 286.36"></polygon><polygon id="Cube_face_-_right-60" data-name="Cube face - right" class="cls-4" points="27.54 285.81 28.48 286.36 28.48 286 27.54 285.46 27.54 285.81"></polygon><polygon id="Cube_face_-_top-69" data-name="Cube face - top" class="cls-6" points="28.48 286 32.17 283.87 31.24 283.33 27.54 285.46 28.48 286"></polygon></g><g id="Axonometric_Cube-62" data-name="Axonometric Cube"><polygon id="Cube_face_-_left-62" data-name="Cube face - left" class="cls-7" points="30.48 287.51 34.18 285.38 34.18 285.03 30.48 287.16 30.48 287.51"></polygon><polygon id="Cube_face_-_right-61" data-name="Cube face - right" class="cls-4" points="29.54 286.97 30.48 287.51 30.48 287.16 29.54 286.62 29.54 286.97"></polygon><polygon id="Cube_face_-_top-70" data-name="Cube face - top" class="cls-6" points="30.48 287.16 34.18 285.03 33.24 284.49 29.54 286.62 30.48 287.16"></polygon></g><g id="Axonometric_Cube-63" data-name="Axonometric Cube"><polygon id="Cube_face_-_left-63" data-name="Cube face - left" class="cls-7" points="32.48 288.67 36.18 286.53 36.18 286.18 32.48 288.32 32.48 288.67"></polygon><polygon id="Cube_face_-_right-62" data-name="Cube face - right" class="cls-4" points="31.54 288.12 32.48 288.67 32.48 288.32 31.54 287.77 31.54 288.12"></polygon><polygon id="Cube_face_-_top-71" data-name="Cube face - top" class="cls-6" points="32.48 288.32 36.18 286.18 35.24 285.64 31.54 287.77 32.48 288.32"></polygon></g><g id="Axonometric_Cube-64" data-name="Axonometric Cube"><polygon id="Cube_face_-_left-64" data-name="Cube face - left" class="cls-7" points="34.48 289.82 38.18 287.69 38.18 287.34 34.48 289.47 34.48 289.82"></polygon><polygon id="Cube_face_-_right-63" data-name="Cube face - right" class="cls-4" points="33.55 289.28 34.48 289.82 34.48 289.47 33.55 288.93 33.55 289.28"></polygon><polygon id="Cube_face_-_top-72" data-name="Cube face - top" class="cls-6" points="34.48 289.47 38.18 287.34 37.24 286.8 33.55 288.93 34.48 289.47"></polygon></g><g id="Axonometric_Cube-65" data-name="Axonometric Cube"><polygon id="Cube_face_-_left-65" data-name="Cube face - left" class="cls-7" points="36.49 290.98 40.18 288.84 40.18 288.49 36.49 290.63 36.49 290.98"></polygon><polygon id="Cube_face_-_right-64" data-name="Cube face - right" class="cls-4" points="35.55 290.44 36.49 290.98 36.49 290.63 35.55 290.08 35.55 290.44"></polygon><polygon id="Cube_face_-_top-73" data-name="Cube face - top" class="cls-6" points="36.49 290.63 40.18 288.49 39.24 287.95 35.55 290.08 36.49 290.63"></polygon></g><g id="Axonometric_Cube-66" data-name="Axonometric Cube"><polygon id="Cube_face_-_left-66" data-name="Cube face - left" class="cls-7" points="38.49 292.13 42.18 290 42.18 289.65 38.49 291.78 38.49 292.13"></polygon><polygon id="Cube_face_-_right-65" data-name="Cube face - right" class="cls-4" points="37.55 291.59 38.49 292.13 38.49 291.78 37.55 291.24 37.55 291.59"></polygon><polygon id="Cube_face_-_top-74" data-name="Cube face - top" class="cls-6" points="38.49 291.78 42.18 289.65 41.24 289.11 37.55 291.24 38.49 291.78"></polygon></g><g id="Axonometric_Cube-67" data-name="Axonometric Cube"><polygon id="Cube_face_-_left-67" data-name="Cube face - left" class="cls-7" points="40.49 293.29 44.18 291.15 44.18 290.8 40.49 292.94 40.49 293.29"></polygon><polygon id="Cube_face_-_right-66" data-name="Cube face - right" class="cls-4" points="39.55 292.75 40.49 293.29 40.49 292.94 39.55 292.39 39.55 292.75"></polygon><polygon id="Cube_face_-_top-75" data-name="Cube face - top" class="cls-6" points="40.49 292.94 44.18 290.8 43.24 290.26 39.55 292.39 40.49 292.94"></polygon></g><g class="cls-60"><path class="cls-25" d="M39.93,280.26l-.64.37c-.31.17-.47.36-.47.55s.15.38.46.55l1.85,1.08a1.88,1.88,0,0,0,1,.26,1.9,1.9,0,0,0,1-.27l.63-.37c.31-.17.46-.36.47-.55s-.15-.38-.45-.56l-.28-.16a.24.24,0,0,0-.26,0l-.49.29c-.08,0-.08.09,0,.14l.24.14c.12.07.18.14.18.2s-.06.13-.18.2l-.4.23a.71.71,0,0,1-.34.11.74.74,0,0,1-.35-.11l-1.79-1c-.12-.08-.18-.14-.18-.2s.06-.13.18-.2l.4-.23a.71.71,0,0,1,.34-.11.74.74,0,0,1,.35.11l.24.14a.23.23,0,0,0,.25,0l.49-.28q.14-.07,0-.15l-.27-.16a1.88,1.88,0,0,0-1-.26A1.84,1.84,0,0,0,39.93,280.26Z"></path><path class="cls-25" d="M43.08,278.43l-1.43.83c0,.14,3.53,2.17,3.53,2.17a.21.21,0,0,0,.24,0l.5-.28c0-.15-1.11-.79-1.11-.79a5.14,5.14,0,0,1,.75-.5c.3-.18.46-.36.46-.55s-.15-.38-.46-.56l-.56-.32a1.82,1.82,0,0,0-1-.26A2,2,0,0,0,43.08,278.43Zm1.7.73c.13.07.19.14.19.2s-.06.12-.19.2l-.62.35a9.68,9.68,0,0,1-1.17-.6c0-.08.62-.43.62-.43a.62.62,0,0,1,.34-.11.71.71,0,0,1,.34.11Z"></path><path class="cls-25" d="M47.06,276.14l-.49.28a25.92,25.92,0,0,0,2.65,1.68c.13.07.19.14.19.2s-.06.12-.19.2l-.4.23a.62.62,0,0,1-.34.1.63.63,0,0,1-.35-.1l-2.65-1.54a.28.28,0,0,0-.25,0l-.5.29a28.53,28.53,0,0,0,2.69,1.7,1.87,1.87,0,0,0,1.92,0l.65-.37c.3-.18.46-.36.46-.56s-.15-.38-.45-.55l-2.7-1.56A.23.23,0,0,0,47.06,276.14Z"></path></g><g id="Axonometric_Cube-68" data-name="Axonometric Cube"><polygon id="Cube_face_-_left-68" data-name="Cube face - left" class="cls-31" points="120.87 254.74 109.11 247.96 109.11 246.29 120.87 253.08 120.87 254.74"></polygon><polygon id="Cube_face_-_right-67" data-name="Cube face - right" class="cls-32" points="124.23 252.8 120.87 254.74 120.87 253.08 124.23 251.14 124.23 252.8"></polygon><polygon id="Cube_face_-_top-76" data-name="Cube face - top" class="cls-22" points="120.87 253.08 109.11 246.29 112.47 244.35 124.23 251.14 120.87 253.08"></polygon></g><g id="Axonometric_Cube-69" data-name="Axonometric Cube"><polygon id="Cube_face_-_left-69" data-name="Cube face - left" class="cls-9" points="120.04 251.92 111.44 246.96 111.44 238.35 120.04 243.32 120.04 251.92"></polygon><polygon id="Cube_face_-_right-68" data-name="Cube face - right" class="cls-34" points="122.5 250.5 120.04 251.92 120.04 243.32 122.5 241.9 122.5 250.5"></polygon><polygon id="Cube_face_-_top-77" data-name="Cube face - top" class="cls-25" points="120.04 243.32 111.44 238.35 113.9 236.93 122.5 241.9 120.04 243.32"></polygon></g><path class="cls-61" d="M233.41,165.2c-10.88,2-27.15,5.1-38.33,8.19l9.26,4.89c10.38-2.18,20.36-3.74,29.07-5Z"></path><path class="cls-21" d="M195.69,173.22c-28.38,7.78-61.14,20.55-76.33,45.38-1,1.56-2.37,4.31-3.6,6.69a20.77,20.77,0,0,0-2.34,9.62l0,3.52,6.29,3.73.93-.54,0-3.6a30.6,30.6,0,0,1,3.16-12.77c.79-1.5,2.72-4.38,3-4.79,19-26.16,54.34-37.25,78.22-42.32Z"></path><path class="cls-62" d="M202.08,176.59c-3.21.68-6.44,1.37-9.59,2.09-18.5,4.5-44.18,15.71-55.15,26.67-10.56,10.57-15.7,17.9-17.43,24.55-1,3.85-.27,12.2-.27,12.2a43.21,43.21,0,0,1,1.06-11.57c1.67-6.43,7.06-13.94,17.47-24.35,10.82-10.82,36.25-21.91,54.58-26.37,3.61-.81,7.3-1.61,10.95-2.36Z"></path></g></g></g></svg> 