<?xml version="1.0" encoding="UTF-8"?> <svg xmlns="http://www.w3.org/2000/svg" width="160" height="160" viewBox="0 0 160 160" fill="none"><g clip-path="url(#clip0_39_96)"><path d="M101.344 92.5469C101.344 97.3281 99.7891 101.445 96.6797 104.898C93.5703 108.352 89.5312 110.484 84.5625 111.297V119.5C84.5625 119.937 84.4219 120.297 84.1406 120.578C83.8594 120.859 83.5 121 83.0625 121H76.7344C76.3281 121 75.9766 120.852 75.6797 120.555C75.3828 120.258 75.2344 119.906 75.2344 119.5V111.297C73.1719 111.016 71.1797 110.531 69.2578 109.844C67.3359 109.156 65.75 108.461 64.5 107.758C63.25 107.055 62.0937 106.305 61.0312 105.508C59.9688 104.711 59.2422 104.125 58.8516 103.75C58.4609 103.375 58.1875 103.094 58.0312 102.906C57.5 102.25 57.4688 101.609 57.9375 100.984L62.7656 94.6562C62.9844 94.3438 63.3437 94.1563 63.8438 94.0938C64.3125 94.0312 64.6875 94.1719 64.9688 94.5156L65.0625 94.6094C68.5938 97.7031 72.3906 99.6562 76.4531 100.469C77.6094 100.719 78.7656 100.844 79.9219 100.844C82.4531 100.844 84.6797 100.172 86.6016 98.8281C88.5234 97.4844 89.4844 95.5781 89.4844 93.1094C89.4844 92.2344 89.25 91.4062 88.7812 90.625C88.3125 89.8438 87.7891 89.1875 87.2109 88.6562C86.6328 88.125 85.7187 87.5391 84.4688 86.8984C83.2188 86.2578 82.1875 85.7578 81.375 85.3984C80.5625 85.0391 79.3125 84.5312 77.625 83.875C76.4062 83.375 75.4453 82.9844 74.7422 82.7031C74.0391 82.4219 73.0781 82.0078 71.8594 81.4609C70.6406 80.9141 69.6641 80.4297 68.9297 80.0078C68.1953 79.5859 67.3125 79.0313 66.2812 78.3438C65.25 77.6562 64.4141 76.9922 63.7734 76.3516C63.1328 75.7109 62.4531 74.9453 61.7344 74.0547C61.0156 73.1641 60.4609 72.2578 60.0703 71.3359C59.6797 70.4141 59.3516 69.375 59.0859 68.2188C58.8203 67.0625 58.6875 65.8438 58.6875 64.5625C58.6875 60.25 60.2187 56.4688 63.2812 53.2188C66.3438 49.9687 70.3281 47.875 75.2344 46.9375V38.5C75.2344 38.0937 75.3828 37.7422 75.6797 37.4453C75.9766 37.1484 76.3281 37 76.7344 37H83.0625C83.5 37 83.8594 37.1406 84.1406 37.4219C84.4219 37.7031 84.5625 38.0625 84.5625 38.5V46.75C86.3438 46.9375 88.0703 47.2969 89.7422 47.8281C91.4141 48.3594 92.7734 48.8828 93.8203 49.3984C94.8672 49.9141 95.8594 50.5 96.7969 51.1562C97.7344 51.8125 98.3438 52.2656 98.625 52.5156C98.9062 52.7656 99.1406 52.9844 99.3281 53.1719C99.8594 53.7344 99.9375 54.3281 99.5625 54.9531L95.7656 61.7969C95.5156 62.2656 95.1562 62.5156 94.6875 62.5469C94.25 62.6406 93.8281 62.5312 93.4219 62.2188C93.3281 62.125 93.1016 61.9375 92.7422 61.6562C92.3828 61.375 91.7734 60.9609 90.9141 60.4141C90.0547 59.8672 89.1406 59.3672 88.1719 58.9141C87.2031 58.4609 86.0391 58.0547 84.6797 57.6953C83.3203 57.3359 81.9844 57.1562 80.6719 57.1562C77.7031 57.1562 75.2812 57.8281 73.4062 59.1719C71.5312 60.5156 70.5938 62.25 70.5938 64.375C70.5938 65.1875 70.7266 65.9375 70.9922 66.625C71.2578 67.3125 71.7188 67.9609 72.375 68.5703C73.0312 69.1797 73.6484 69.6953 74.2266 70.1172C74.8047 70.5391 75.6797 71.0234 76.8516 71.5703C78.0234 72.1172 78.9688 72.5391 79.6875 72.8359C80.4062 73.1328 81.5 73.5625 82.9688 74.125C84.625 74.75 85.8906 75.2422 86.7656 75.6016C87.6406 75.9609 88.8281 76.5078 90.3281 77.2422C91.8281 77.9766 93.0078 78.6406 93.8672 79.2344C94.7266 79.8281 95.6953 80.6094 96.7734 81.5781C97.8516 82.5469 98.6797 83.5391 99.2578 84.5547C99.8359 85.5703 100.328 86.7656 100.734 88.1406C101.141 89.5156 101.344 90.9844 101.344 92.5469Z" fill="#4764EB"></path></g><circle cx="80" cy="80" r="76" stroke="#4764EB" stroke-width="8"></circle><defs><clipPath id="clip0_39_96"><rect width="45" height="84" fill="white" transform="translate(57 37)"></rect></clipPath></defs></svg> 