<?xml version="1.0" encoding="UTF-8"?> <svg xmlns="http://www.w3.org/2000/svg" width="160" height="160" viewBox="0 0 160 160" fill="none"><path d="M40.9131 41.6311H48.2978C50.873 41.6311 52.1583 41.6311 53.1847 42.1891C53.6078 42.4199 53.9911 42.7161 54.3201 43.0666C55.1149 43.9171 55.4283 45.1546 56.0505 47.6296L56.877 50.9011C57.3358 52.7191 57.5674 53.6281 57.9216 54.3931C58.5272 55.6985 59.4394 56.8413 60.5819 57.726C61.7244 58.6106 63.0641 59.2114 64.4889 59.4781C65.3245 59.6311 66.2692 59.6311 68.1631 59.6311" stroke="#4764EB" stroke-width="8" stroke-linecap="round"></path><path d="M104.496 100.131H57.0359C56.3774 100.131 56.0458 100.131 55.7915 100.104C55.1609 100.034 54.552 99.8345 54.0042 99.5174C53.4563 99.2003 52.9816 98.7729 52.6106 98.2629C52.2396 97.7528 51.9806 97.1714 51.8503 96.5562C51.7199 95.9409 51.7212 95.3054 51.8539 94.6906C51.9587 94.2923 52.0815 93.8989 52.2218 93.5116C52.4579 92.8186 52.5715 92.4721 52.7032 92.1616C53.3497 90.6273 54.4125 89.3004 55.7737 88.3282C57.135 87.3559 58.7414 86.7763 60.4149 86.6536C60.751 86.6311 61.1234 86.6311 61.8546 86.6311H86.3297" stroke="#4764EB" stroke-width="8" stroke-linecap="round" stroke-linejoin="round"></path><path d="M88.7277 86.6311H72.5866C67.0639 86.6311 64.3026 86.6311 62.1726 85.3936C61.2745 84.87 60.474 84.1972 59.8064 83.4046C58.2168 81.5236 57.7626 78.8236 56.8588 73.4281C55.9369 67.9606 55.4781 65.2246 56.5727 63.1996C57.028 62.3545 57.6597 61.6151 58.4257 61.0306C60.2605 59.6311 63.0582 59.6311 68.6535 59.6311H98.8829C105.468 59.6311 108.761 59.6311 110.096 61.7641C111.427 63.9016 109.951 66.8176 107.008 72.6541L104.978 76.6816C102.534 81.5236 101.313 83.9446 99.119 85.2856C96.9209 86.6311 94.1913 86.6311 88.7277 86.6311Z" stroke="#4764EB" stroke-width="8" stroke-linecap="round"></path><path d="M99.9548 118.131C102.463 118.131 104.496 116.116 104.496 113.631C104.496 111.146 102.463 109.131 99.9548 109.131C97.4465 109.131 95.4131 111.146 95.4131 113.631C95.4131 116.116 97.4465 118.131 99.9548 118.131Z" fill="#4764EB"></path><path d="M63.6217 118.131C66.13 118.131 68.1634 116.116 68.1634 113.631C68.1634 111.146 66.13 109.131 63.6217 109.131C61.1135 109.131 59.0801 111.146 59.0801 113.631C59.0801 116.116 61.1135 118.131 63.6217 118.131Z" fill="#4764EB"></path><circle cx="80" cy="80" r="76" stroke="#4764EB" stroke-width="8"></circle></svg> 