<?xml version="1.0" encoding="UTF-8"?> <svg xmlns="http://www.w3.org/2000/svg" width="160" height="160" viewBox="0 0 160 160" fill="none"><circle cx="80" cy="80" r="76" stroke="#4764EB" stroke-width="8"></circle><path d="M119.554 99.2675L100.909 80.6638C101.299 78.7637 101.493 76.8285 101.486 74.8888C101.485 69.5702 100.143 64.3378 97.5838 59.6753C95.025 55.0127 91.332 51.0705 86.8463 48.213C82.3606 45.3554 77.2269 43.6748 71.9197 43.3265C66.6126 42.9781 61.3033 43.9733 56.4826 46.22C55.8718 46.499 55.3384 46.9229 54.9286 47.4549C54.5189 47.9868 54.2452 48.6108 54.1313 49.2725C54.0179 49.9259 54.0636 50.5969 54.2647 51.2288C54.4657 51.8607 54.8162 52.4348 55.2863 52.9025L73.23 70.805L65.8051 78.23L47.9026 60.2863C47.4309 59.8234 46.855 59.4807 46.2233 59.2869C45.5916 59.0931 44.9226 59.0538 44.2726 59.1725C43.615 59.2822 42.9937 59.5497 42.4621 59.952C41.9305 60.3543 41.5043 60.8795 41.2201 61.4825C38.9658 66.3191 37.9715 71.6473 38.3296 76.9713C38.6877 82.2954 40.3866 87.4424 43.2682 91.9336C46.1497 96.4247 50.1204 100.114 54.8109 102.659C59.5013 105.203 64.7591 106.52 70.0951 106.486C72.0348 106.492 73.97 106.299 75.8701 105.909L94.4738 124.554C94.8573 124.94 95.3135 125.247 95.8162 125.457C96.3188 125.666 96.858 125.774 97.4026 125.774C97.9471 125.774 98.4863 125.666 98.9889 125.457C99.4916 125.247 99.9478 124.94 100.331 124.554C100.718 124.17 101.025 123.714 101.234 123.211C101.444 122.709 101.551 122.17 101.551 121.625C101.551 121.08 101.444 120.541 101.234 120.039C101.025 119.536 100.718 119.08 100.331 118.696L80.1188 98.4838C79.6137 97.982 78.9873 97.6195 78.3006 97.4316C77.6139 97.2437 76.8903 97.2366 76.2001 97.4113C74.2084 97.9446 72.1568 98.2219 70.0951 98.2363C67.0098 98.2635 63.9496 97.68 61.0908 96.5193C58.232 95.3587 55.631 93.6439 53.4378 91.4737C51.2447 89.3035 49.5025 86.7209 48.3118 83.8745C47.1211 81.028 46.5054 77.9742 46.5001 74.8888C46.4947 73.507 46.6051 72.1271 46.8301 70.7638L63.0001 86.975C63.3835 87.3616 63.8398 87.6685 64.3424 87.8779C64.8451 88.0874 65.3843 88.1952 65.9288 88.1952C66.4734 88.1952 67.0125 88.0874 67.5152 87.8779C68.0179 87.6685 68.4741 87.3616 68.8576 86.975L81.9751 73.7338C82.7185 72.9646 83.1341 71.9366 83.1341 70.8669C83.1341 69.7971 82.7185 68.7692 81.9751 68L65.9288 51.83C67.2925 51.6073 68.6721 51.4969 70.0538 51.5C76.2497 51.5109 82.1882 53.9799 86.5655 58.365C90.9428 62.75 93.4013 68.6928 93.4013 74.8888C93.3869 76.9506 93.1097 79.0021 92.5763 80.9938C92.4017 81.684 92.4087 82.4076 92.5966 83.0943C92.7846 83.781 93.1471 84.4074 93.6488 84.9125L113.861 105.125C114.638 105.902 115.692 106.338 116.79 106.338C117.889 106.338 118.942 105.902 119.719 105.125C120.496 104.348 120.932 103.295 120.932 102.196C120.932 101.098 120.496 100.044 119.719 99.2675H119.554Z" fill="#4764EB"></path></svg> 