<?xml version="1.0" encoding="UTF-8"?> <svg xmlns="http://www.w3.org/2000/svg" width="160" height="160" viewBox="0 0 160 160" fill="none"><circle cx="80" cy="80" r="76" stroke="#4764EB" stroke-width="8"></circle><circle cx="80" cy="80" r="76" stroke="#4764EB" stroke-width="8"></circle><path d="M87.5 47.2588C87.5 44.63 85.37 42.5 82.7412 42.5H77.2625C74.63 42.5 72.5 44.63 72.5 47.2588C72.5 49.4263 71.015 51.2862 68.9937 52.0812C68.675 52.2087 68.3563 52.3437 68.045 52.4787C66.0538 53.3412 63.6875 53.0788 62.15 51.545C61.2577 50.6533 60.0478 50.1524 58.7862 50.1524C57.5247 50.1524 56.3148 50.6533 55.4225 51.545L51.545 55.4225C50.6533 56.3148 50.1524 57.5247 50.1524 58.7862C50.1524 60.0478 50.6533 61.2577 51.545 62.15C53.0825 63.6875 53.345 66.05 52.475 68.045C52.3383 68.359 52.207 68.6753 52.0812 68.9937C51.2862 71.015 49.4263 72.5 47.2588 72.5C44.63 72.5 42.5 74.63 42.5 77.2588V82.7412C42.5 85.37 44.63 87.5 47.2588 87.5C49.4263 87.5 51.2862 88.985 52.0812 91.0063C52.2087 91.325 52.3437 91.6437 52.475 91.955C53.3412 93.9462 53.0788 96.3125 51.545 97.85C50.6533 98.7423 50.1524 99.9522 50.1524 101.214C50.1524 102.475 50.6533 103.685 51.545 104.578L55.4225 108.455C56.3148 109.347 57.5247 109.848 58.7862 109.848C60.0478 109.848 61.2577 109.347 62.15 108.455C63.6875 106.917 66.05 106.655 68.045 107.521C68.3563 107.66 68.675 107.791 68.9937 107.919C71.015 108.714 72.5 110.574 72.5 112.741C72.5 115.37 74.63 117.5 77.2588 117.5H82.7412C85.37 117.5 87.5 115.37 87.5 112.741C87.5 110.574 88.985 108.714 91.0063 107.915C91.325 107.791 91.6437 107.66 91.955 107.525C93.9462 106.655 96.3125 106.921 97.8463 108.455C98.2882 108.897 98.8128 109.248 99.3903 109.487C99.9678 109.726 100.587 109.849 101.212 109.849C101.837 109.849 102.456 109.726 103.033 109.487C103.611 109.248 104.136 108.897 104.578 108.455L108.455 104.578C109.347 103.685 109.848 102.475 109.848 101.214C109.848 99.9522 109.347 98.7423 108.455 97.85C106.917 96.3125 106.655 93.95 107.521 91.955C107.66 91.6437 107.791 91.325 107.919 91.0063C108.714 88.985 110.574 87.5 112.741 87.5C115.37 87.5 117.5 85.37 117.5 82.7412V77.2625C117.5 74.6338 115.37 72.5038 112.741 72.5038C110.574 72.5038 108.714 71.0187 107.915 68.9975C107.789 68.679 107.658 68.3627 107.521 68.0487C106.659 66.0575 106.921 63.6913 108.455 62.1538C109.347 61.2614 109.848 60.0515 109.848 58.79C109.848 57.5285 109.347 56.3186 108.455 55.4263L104.578 51.5488C103.685 50.657 102.475 50.1561 101.214 50.1561C99.9522 50.1561 98.7423 50.657 97.85 51.5488C96.3125 53.0863 93.95 53.3488 91.955 52.4825C91.6411 52.3445 91.3248 52.212 91.0063 52.085C88.985 51.2863 87.5 49.4225 87.5 47.2588Z" stroke="#4764EB" stroke-width="8"></path><path d="M95 80C95 83.9782 93.4197 87.7936 90.6066 90.6066C87.7936 93.4197 83.9782 95 80 95C76.0218 95 72.2064 93.4197 69.3934 90.6066C66.5804 87.7936 65 83.9782 65 80C65 76.0218 66.5804 72.2064 69.3934 69.3934C72.2064 66.5804 76.0218 65 80 65C83.9782 65 87.7936 66.5804 90.6066 69.3934C93.4197 72.2064 95 76.0218 95 80Z" stroke="#4764EB" stroke-width="8"></path></svg> 